<svg width="540" height="201" viewBox="0 0 540 201" fill="none" xmlns="http://www.w3.org/2000/svg">
<path d="M530.341 95.9898C534.019 97.8346 534.019 103.083 530.341 104.928L367.454 186.643C362.358 189.2 357.641 182.603 361.708 178.607L437.62 104.026C439.614 102.066 439.614 98.8518 437.62 96.8923L361.708 22.3104C357.641 18.3148 362.358 11.7181 367.454 14.2746L530.341 95.9898Z" fill="#5DBDD3"/>
<path d="M530.341 95.9898C534.019 97.8346 534.019 103.083 530.341 104.928L367.454 186.643C362.358 189.2 357.641 182.603 361.708 178.607L437.62 104.026C439.614 102.066 439.614 98.8518 437.62 96.8923L361.708 22.3104C357.641 18.3148 362.358 11.7181 367.454 14.2746L530.341 95.9898Z" fill="#5DBDD3"/>
<path d="M348.437 98.5631C349.907 99.301 349.907 101.4 348.437 102.138L197.234 177.992C195.196 179.014 193.309 176.376 194.936 174.777L269.237 101.777C270.035 100.994 270.035 99.7079 269.237 98.9241L194.936 25.9242C193.309 24.3259 195.196 21.6873 197.234 22.7098L348.437 98.5631Z" fill="#5DBDD3"/>
<path d="M348.437 98.5631C349.907 99.301 349.907 101.4 348.437 102.138L197.234 177.992C195.196 179.014 193.309 176.376 194.936 174.777L269.237 101.777C270.035 100.994 270.035 99.7079 269.237 98.9241L194.936 25.9242C193.309 24.3259 195.196 21.6873 197.234 22.7098L348.437 98.5631Z" fill="#5DBDD3"/>
<path d="M256.34 98.5631C257.811 99.301 257.811 101.4 256.34 102.138L105.138 177.992C103.1 179.014 101.213 176.376 102.84 174.777L177.141 101.777C177.939 100.994 177.939 99.7079 177.141 98.9241L102.84 25.9242C101.213 24.3259 103.1 21.6873 105.138 22.7098L256.34 98.5631Z" fill="#5DBDD3"/>
<path d="M256.34 98.5631C257.811 99.301 257.811 101.4 256.34 102.138L105.138 177.992C103.1 179.014 101.213 176.376 102.84 174.777L177.141 101.777C177.939 100.994 177.939 99.7079 177.141 98.9241L102.84 25.9242C101.213 24.3259 103.1 21.6873 105.138 22.7098L256.34 98.5631Z" fill="#5DBDD3"/>
<path d="M162.584 98.5631C164.055 99.301 164.055 101.4 162.584 102.138L11.3819 177.992C9.34349 179.014 7.45665 176.376 9.08341 174.777L83.3848 101.777C84.1826 100.994 84.1826 99.7079 83.3848 98.9241L9.08341 25.9242C7.45665 24.3259 9.34348 21.6873 11.3819 22.7098L162.584 98.5631Z" fill="#5DBDD3"/>
<path d="M162.584 98.5631C164.055 99.301 164.055 101.4 162.584 102.138L11.3819 177.992C9.34349 179.014 7.45665 176.376 9.08341 174.777L83.3848 101.777C84.1826 100.994 84.1826 99.7079 83.3848 98.9241L9.08341 25.9242C7.45665 24.3259 9.34348 21.6873 11.3819 22.7098L162.584 98.5631Z" fill="#5DBDD3"/>
</svg>
