<svg width="1980" height="1193" viewBox="0 0 1980 1193" fill="none" xmlns="http://www.w3.org/2000/svg">
<rect width="1980" height="1192.65" fill="#D9D9D9"/>
<path fill-rule="evenodd" clip-rule="evenodd" d="M1166.68 705.549C1128.09 705.549 1096.9 737.503 1096.9 777.035C1096.9 808.635 1116.89 835.383 1144.61 844.85C1148.08 845.562 1149.35 843.312 1149.35 841.419C1149.35 839.762 1149.23 834.082 1149.23 828.163C1129.82 832.424 1125.78 819.641 1125.78 819.641C1122.66 811.357 1118.04 809.227 1118.04 809.227C1111.69 804.848 1118.5 804.848 1118.5 804.848C1125.55 805.322 1129.25 812.186 1129.25 812.186C1135.49 823.073 1145.54 819.997 1149.58 818.103C1150.16 813.487 1152.01 810.292 1153.97 808.517C1138.49 806.86 1122.2 800.706 1122.2 773.247C1122.2 765.436 1124.97 759.045 1129.36 754.074C1128.67 752.3 1126.24 744.96 1130.06 735.137C1130.06 735.137 1135.95 733.243 1149.23 742.475C1154.92 740.91 1160.79 740.114 1166.68 740.108C1172.57 740.108 1178.57 740.937 1184.12 742.475C1197.41 733.243 1203.3 735.137 1203.3 735.137C1207.11 744.96 1204.68 752.3 1203.99 754.074C1208.5 759.045 1211.15 765.436 1211.15 773.247C1211.15 800.706 1194.87 806.741 1179.27 808.517C1181.81 810.765 1184 815.025 1184 821.772C1184 831.358 1183.89 839.052 1183.89 841.418C1183.89 843.312 1185.16 845.562 1188.63 844.852C1216.35 835.382 1236.34 808.635 1236.34 777.035C1236.45 737.503 1205.15 705.549 1166.68 705.549Z" fill="black"/>
<g clip-path="url(#clip0_256_123)">
<path fill-rule="evenodd" clip-rule="evenodd" d="M990 844.986C1028.5 844.986 1059.72 813.772 1059.72 775.268C1059.72 736.763 1028.5 705.549 990 705.549C951.496 705.549 920.282 736.763 920.282 775.268C920.282 813.772 951.496 844.986 990 844.986Z" fill="black"/>
<path fill-rule="evenodd" clip-rule="evenodd" d="M1034.54 815.936H1017.03V786.116C1017.03 777.94 1013.93 773.371 1007.46 773.371C1000.42 773.371 996.738 778.125 996.738 786.116V815.936H979.865V759.129H996.738V766.781C996.738 766.781 1001.81 757.393 1013.87 757.393C1025.92 757.393 1034.54 764.751 1034.54 779.969V815.936ZM959.736 751.69C953.988 751.69 949.331 746.996 949.331 741.207C949.331 735.419 953.988 730.725 959.736 730.725C965.483 730.725 970.137 735.419 970.137 741.207C970.137 746.996 965.483 751.69 959.736 751.69ZM951.023 815.936H968.617V759.129H951.023V815.936Z" fill="white"/>
</g>
<path d="M883.099 775.268C883.099 736.763 851.885 705.549 813.38 705.549C774.876 705.549 743.662 736.763 743.662 775.268C743.662 807.964 766.171 835.399 796.538 842.933V796.572H782.162V775.268H796.538V766.087C796.538 742.357 807.277 731.359 830.574 731.359C834.991 731.359 842.612 732.225 845.73 733.091V752.404C844.084 752.231 841.226 752.144 837.676 752.144C826.244 752.144 821.827 756.474 821.827 767.733V775.268H844.599L840.687 796.572H821.827V844.475C856.347 840.306 883.099 810.913 883.099 775.268Z" fill="black"/>
<path d="M840.687 796.572L844.599 775.268H821.827V767.733C821.827 756.474 826.244 752.144 837.676 752.144C841.226 752.144 844.084 752.23 845.73 752.404V733.091C842.612 732.225 834.991 731.358 830.574 731.358C807.277 731.358 796.538 742.358 796.538 766.087V775.268H782.162V796.572H796.538V842.933C801.932 844.271 807.573 844.986 813.38 844.986C816.24 844.986 819.058 844.81 821.827 844.475V796.572H840.687Z" fill="white"/>
<path d="M144.909 410L119.318 316.909H125.227L147.955 401.227H148.5L170.864 316.909H177.773L200.136 401.227H200.682L223.409 316.909H229.273L203.682 410H197.136L174.545 326.227H174.045L151.455 410H144.909ZM249.67 364.727V410H244.125V316.909H249.67V351.227H250.216C251.852 347.591 254.458 344.697 258.034 342.545C261.64 340.364 265.958 339.273 270.989 339.273C275.686 339.273 279.822 340.273 283.398 342.273C286.973 344.242 289.761 347.076 291.761 350.773C293.792 354.439 294.807 358.833 294.807 363.955V410H289.307V364.182C289.307 358.212 287.534 353.424 283.989 349.818C280.443 346.212 275.761 344.409 269.943 344.409C266.034 344.409 262.549 345.258 259.489 346.955C256.428 348.652 254.019 351.03 252.261 354.091C250.534 357.121 249.67 360.667 249.67 364.727ZM336.25 411.5C332.22 411.5 328.523 410.697 325.159 409.091C321.826 407.485 319.144 405.136 317.114 402.045C315.114 398.955 314.114 395.197 314.114 390.773C314.114 387.864 314.629 385.303 315.659 383.091C316.689 380.879 318.28 378.97 320.432 377.364C322.583 375.758 325.341 374.439 328.705 373.409C332.068 372.348 336.083 371.53 340.75 370.955C344.295 370.53 347.462 370.121 350.25 369.727C353.038 369.303 355.22 368.652 356.795 367.773C358.402 366.894 359.205 365.561 359.205 363.773V360.864C359.205 355.773 357.598 351.727 354.386 348.727C351.174 345.727 346.75 344.227 341.114 344.227C336.114 344.227 331.902 345.333 328.477 347.545C325.083 349.727 322.705 352.545 321.341 356L316.114 354.045C317.447 350.712 319.371 347.939 321.886 345.727C324.432 343.515 327.341 341.864 330.614 340.773C333.917 339.682 337.371 339.136 340.977 339.136C344.098 339.136 347.068 339.576 349.886 340.455C352.735 341.333 355.265 342.667 357.477 344.455C359.72 346.242 361.492 348.53 362.795 351.318C364.098 354.076 364.75 357.379 364.75 361.227V410H359.205V397.409H358.795C357.583 400.015 355.917 402.394 353.795 404.545C351.705 406.667 349.174 408.364 346.205 409.636C343.265 410.879 339.947 411.5 336.25 411.5ZM336.795 406.364C341.159 406.364 345.023 405.303 348.386 403.182C351.78 401.03 354.432 398.091 356.341 394.364C358.25 390.636 359.205 386.409 359.205 381.682V371.409C358.508 372.015 357.492 372.561 356.159 373.045C354.856 373.5 353.371 373.909 351.705 374.273C350.068 374.606 348.341 374.909 346.523 375.182C344.735 375.424 342.992 375.652 341.295 375.864C336.205 376.47 332.053 377.409 328.841 378.682C325.659 379.924 323.326 381.561 321.841 383.591C320.386 385.621 319.659 388.076 319.659 390.955C319.659 395.712 321.295 399.47 324.568 402.227C327.841 404.985 331.917 406.364 336.795 406.364ZM412.682 340.182V345.136H382.182V340.182H412.682ZM392.5 323.455H398V393.5C398 396.348 398.545 398.682 399.636 400.5C400.758 402.288 402.212 403.621 404 404.5C405.818 405.348 407.758 405.773 409.818 405.773C410.818 405.773 411.682 405.697 412.409 405.545C413.167 405.394 413.879 405.197 414.545 404.955L415.909 410C415.061 410.303 414.121 410.561 413.091 410.773C412.061 411.015 410.848 411.136 409.455 411.136C406.545 411.136 403.788 410.485 401.182 409.182C398.606 407.879 396.515 405.985 394.909 403.5C393.303 401.015 392.5 398.015 392.5 394.5V323.455ZM484.477 410L463.568 340.182H469.386L487.386 401.864H487.886L505.932 340.182H511.705L529.705 401.818H530.159L548.159 340.182H553.977L533.068 410H526.886L509.068 349.227H508.477L490.659 410H484.477ZM571.523 410V340.182H577.023V410H571.523ZM574.295 327.818C573.083 327.818 572.023 327.394 571.114 326.545C570.235 325.697 569.795 324.667 569.795 323.455C569.795 322.242 570.235 321.212 571.114 320.364C571.992 319.515 573.053 319.091 574.295 319.091C575.508 319.091 576.553 319.515 577.432 320.364C578.341 321.212 578.795 322.242 578.795 323.455C578.795 324.667 578.356 325.697 577.477 326.545C576.598 327.394 575.538 327.818 574.295 327.818ZM605.795 316.909V410H600.25V316.909H605.795ZM634.295 316.909V410H628.75V316.909H634.295ZM695.205 410V316.909H700.705V355.773H701.25C702.341 352.773 703.886 350.015 705.886 347.5C707.886 344.985 710.371 342.97 713.341 341.455C716.311 339.909 719.78 339.136 723.75 339.136C729.356 339.136 734.25 340.697 738.432 343.818C742.614 346.909 745.856 351.182 748.159 356.636C750.462 362.061 751.614 368.273 751.614 375.273C751.614 382.333 750.462 388.591 748.159 394.045C745.856 399.47 742.629 403.727 738.477 406.818C734.326 409.909 729.432 411.455 723.795 411.455C719.826 411.455 716.356 410.697 713.386 409.182C710.417 407.636 707.932 405.606 705.932 403.091C703.932 400.545 702.371 397.773 701.25 394.773H700.614V410H695.205ZM700.659 375.227C700.659 381.167 701.553 386.485 703.341 391.182C705.159 395.848 707.765 399.545 711.159 402.273C714.553 404.97 718.614 406.318 723.341 406.318C728.129 406.318 732.22 404.955 735.614 402.227C739.008 399.47 741.598 395.742 743.386 391.045C745.205 386.348 746.114 381.076 746.114 375.227C746.114 369.379 745.205 364.121 743.386 359.455C741.598 354.788 739.008 351.106 735.614 348.409C732.22 345.682 728.129 344.318 723.341 344.318C718.614 344.318 714.553 345.667 711.159 348.364C707.765 351.03 705.159 354.697 703.341 359.364C701.553 364 700.659 369.288 700.659 375.227ZM797.977 411.455C791.674 411.455 786.189 409.894 781.523 406.773C776.856 403.652 773.25 399.379 770.705 393.955C768.159 388.53 766.886 382.348 766.886 375.409C766.886 368.439 768.159 362.227 770.705 356.773C773.28 351.318 776.811 347.015 781.295 343.864C785.78 340.712 790.902 339.136 796.659 339.136C800.568 339.136 804.265 339.924 807.75 341.5C811.265 343.045 814.356 345.288 817.023 348.227C819.72 351.167 821.826 354.712 823.341 358.864C824.886 363.015 825.659 367.682 825.659 372.864V376.318H770.386V371.273H820.114C820.114 366.212 819.083 361.652 817.023 357.591C814.962 353.53 812.159 350.303 808.614 347.909C805.068 345.515 801.083 344.318 796.659 344.318C792.023 344.318 787.886 345.621 784.25 348.227C780.644 350.803 777.78 354.288 775.659 358.682C773.568 363.076 772.477 367.985 772.386 373.409V375.682C772.386 381.5 773.402 386.727 775.432 391.364C777.492 395.97 780.432 399.621 784.25 402.318C788.068 404.985 792.644 406.318 797.977 406.318C801.795 406.318 805.053 405.682 807.75 404.409C810.477 403.106 812.705 401.53 814.432 399.682C816.159 397.833 817.462 396.045 818.341 394.318L823.386 396.364C822.326 398.697 820.674 401.03 818.432 403.364C816.22 405.667 813.402 407.591 809.977 409.136C806.583 410.682 802.583 411.455 797.977 411.455ZM880.75 410V340.182H886.159V350.727H886.705C888.038 347.212 890.341 344.424 893.614 342.364C896.886 340.303 900.826 339.273 905.432 339.273C910.492 339.273 914.568 340.485 917.659 342.909C920.78 345.333 923.023 348.621 924.386 352.773H924.886C926.25 348.682 928.689 345.409 932.205 342.955C935.75 340.5 940.114 339.273 945.295 339.273C952.053 339.273 957.205 341.409 960.75 345.682C964.326 349.924 966.114 355.742 966.114 363.136V410H960.568V363.136C960.568 357.318 959.174 352.742 956.386 349.409C953.598 346.076 949.508 344.409 944.114 344.409C938.356 344.409 933.932 346.212 930.841 349.818C927.75 353.424 926.205 358.015 926.205 363.591V410H920.659V362.773C920.659 357.348 919.295 352.939 916.568 349.545C913.841 346.121 909.75 344.409 904.295 344.409C900.598 344.409 897.402 345.258 894.705 346.955C892.038 348.652 889.962 350.985 888.477 353.955C887.023 356.924 886.295 360.333 886.295 364.182V410H880.75ZM991.08 436.182C989.686 436.182 988.307 436.03 986.943 435.727C985.58 435.424 984.352 435.03 983.261 434.545L984.898 429.682C987.746 430.773 990.322 431.167 992.625 430.864C994.958 430.561 997.019 429.5 998.807 427.682C1000.59 425.864 1002.11 423.197 1003.35 419.682L1006.53 410.955L980.943 340.182H986.898L1009.08 402.864H1009.53L1031.72 340.182H1037.67L1008.22 421.864C1007.09 425.015 1005.69 427.652 1003.99 429.773C1002.29 431.894 1000.35 433.485 998.17 434.545C996.019 435.636 993.655 436.182 991.08 436.182ZM1096.55 364.727V410H1091V340.182H1096.41V351.227H1096.95C1098.59 347.621 1101.21 344.727 1104.82 342.545C1108.42 340.364 1112.71 339.273 1117.68 339.273C1122.38 339.273 1126.5 340.273 1130.05 342.273C1133.62 344.273 1136.41 347.121 1138.41 350.818C1140.44 354.485 1141.45 358.864 1141.45 363.955V410H1135.91V364.182C1135.91 358.242 1134.14 353.47 1130.59 349.864C1127.08 346.227 1122.42 344.409 1116.64 344.409C1112.76 344.409 1109.3 345.258 1106.27 346.955C1103.24 348.652 1100.86 351.03 1099.14 354.091C1097.41 357.121 1096.55 360.667 1096.55 364.727ZM1191.73 411.455C1185.42 411.455 1179.94 409.894 1175.27 406.773C1170.61 403.652 1167 399.379 1164.45 393.955C1161.91 388.53 1160.64 382.348 1160.64 375.409C1160.64 368.439 1161.91 362.227 1164.45 356.773C1167.03 351.318 1170.56 347.015 1175.05 343.864C1179.53 340.712 1184.65 339.136 1190.41 339.136C1194.32 339.136 1198.02 339.924 1201.5 341.5C1205.02 343.045 1208.11 345.288 1210.77 348.227C1213.47 351.167 1215.58 354.712 1217.09 358.864C1218.64 363.015 1219.41 367.682 1219.41 372.864V376.318H1164.14V371.273H1213.86C1213.86 366.212 1212.83 361.652 1210.77 357.591C1208.71 353.53 1205.91 350.303 1202.36 347.909C1198.82 345.515 1194.83 344.318 1190.41 344.318C1185.77 344.318 1181.64 345.621 1178 348.227C1174.39 350.803 1171.53 354.288 1169.41 358.682C1167.32 363.076 1166.23 367.985 1166.14 373.409V375.682C1166.14 381.5 1167.15 386.727 1169.18 391.364C1171.24 395.97 1174.18 399.621 1178 402.318C1181.82 404.985 1186.39 406.318 1191.73 406.318C1195.55 406.318 1198.8 405.682 1201.5 404.409C1204.23 403.106 1206.45 401.53 1208.18 399.682C1209.91 397.833 1211.21 396.045 1212.09 394.318L1217.14 396.364C1216.08 398.697 1214.42 401.03 1212.18 403.364C1209.97 405.667 1207.15 407.591 1203.73 409.136C1200.33 410.682 1196.33 411.455 1191.73 411.455ZM1238.72 340.182L1257.99 371.227L1277.26 340.182H1283.67L1261.31 375.091L1283.67 410H1277.26L1257.99 379.455L1238.72 410H1232.26L1254.53 375.091L1232.26 340.182H1238.72ZM1326.93 340.182V345.136H1296.43V340.182H1326.93ZM1306.75 323.455H1312.25V393.5C1312.25 396.348 1312.8 398.682 1313.89 400.5C1315.01 402.288 1316.46 403.621 1318.25 404.5C1320.07 405.348 1322.01 405.773 1324.07 405.773C1325.07 405.773 1325.93 405.697 1326.66 405.545C1327.42 405.394 1328.13 405.197 1328.8 404.955L1330.16 410C1329.31 410.303 1328.37 410.561 1327.34 410.773C1326.31 411.015 1325.1 411.136 1323.7 411.136C1320.8 411.136 1318.04 410.485 1315.43 409.182C1312.86 407.879 1310.77 405.985 1309.16 403.5C1307.55 401.015 1306.75 398.015 1306.75 394.5V323.455ZM1383.5 436.182V340.182H1388.91V355.773H1389.59C1390.68 352.773 1392.21 350.015 1394.18 347.5C1396.18 344.985 1398.65 342.97 1401.59 341.455C1404.56 339.909 1408.05 339.136 1412.05 339.136C1417.68 339.136 1422.59 340.682 1426.77 343.773C1430.95 346.864 1434.2 351.136 1436.5 356.591C1438.8 362.015 1439.95 368.242 1439.95 375.273C1439.95 382.303 1438.79 388.545 1436.45 394C1434.15 399.424 1430.91 403.697 1426.73 406.818C1422.58 409.909 1417.71 411.455 1412.14 411.455C1408.17 411.455 1404.68 410.697 1401.68 409.182C1398.71 407.667 1396.21 405.652 1394.18 403.136C1392.18 400.591 1390.65 397.803 1389.59 394.773H1389.05V436.182H1383.5ZM1388.95 375.227C1388.95 381.167 1389.86 386.485 1391.68 391.182C1393.5 395.848 1396.11 399.545 1399.5 402.273C1402.89 404.97 1406.94 406.318 1411.64 406.318C1416.39 406.318 1420.47 404.955 1423.86 402.227C1427.29 399.47 1429.89 395.742 1431.68 391.045C1433.5 386.348 1434.41 381.076 1434.41 375.227C1434.41 369.379 1433.52 364.121 1431.73 359.455C1429.94 354.788 1427.35 351.106 1423.95 348.409C1420.56 345.682 1416.45 344.318 1411.64 344.318C1406.88 344.318 1402.8 345.667 1399.41 348.364C1396.05 351.03 1393.45 354.697 1391.64 359.364C1389.85 364 1388.95 369.288 1388.95 375.227ZM1459.12 410V340.182H1464.53V351.091H1465.03C1466.55 347.515 1469.11 344.652 1472.72 342.5C1476.32 340.318 1480.43 339.227 1485.03 339.227C1485.52 339.227 1486 339.227 1486.49 339.227C1486.97 339.227 1487.43 339.242 1487.85 339.273V344.864C1487.49 344.833 1487.05 344.788 1486.53 344.727C1486.05 344.636 1485.44 344.591 1484.72 344.591C1480.84 344.591 1477.38 345.424 1474.35 347.091C1471.35 348.758 1468.99 351.061 1467.26 354C1465.53 356.909 1464.67 360.242 1464.67 364V410H1459.12ZM1526.58 411.455C1520.82 411.455 1515.7 409.909 1511.22 406.818C1506.73 403.697 1503.2 399.409 1500.62 393.955C1498.05 388.5 1496.76 382.288 1496.76 375.318C1496.76 368.318 1498.05 362.106 1500.62 356.682C1503.2 351.227 1506.73 346.939 1511.22 343.818C1515.7 340.697 1520.82 339.136 1526.58 339.136C1532.34 339.136 1537.46 340.697 1541.94 343.818C1546.43 346.939 1549.96 351.227 1552.53 356.682C1555.11 362.136 1556.4 368.348 1556.4 375.318C1556.4 382.288 1555.11 388.5 1552.53 393.955C1549.96 399.409 1546.43 403.697 1541.94 406.818C1537.46 409.909 1532.34 411.455 1526.58 411.455ZM1526.58 406.318C1531.46 406.318 1535.72 404.939 1539.35 402.182C1543.02 399.424 1545.85 395.697 1547.85 391C1549.88 386.303 1550.9 381.076 1550.9 375.318C1550.9 369.561 1549.88 364.348 1547.85 359.682C1545.82 354.985 1542.99 351.258 1539.35 348.5C1535.72 345.712 1531.46 344.318 1526.58 344.318C1521.7 344.318 1517.44 345.712 1513.81 348.5C1510.17 351.258 1507.34 354.985 1505.31 359.682C1503.28 364.348 1502.26 369.561 1502.26 375.318C1502.26 381.076 1503.26 386.303 1505.26 391C1507.29 395.697 1510.12 399.424 1513.76 402.182C1517.43 404.939 1521.7 406.318 1526.58 406.318ZM1575.77 340.182H1581.27V418.5C1581.27 422.106 1580.53 425.227 1579.05 427.864C1577.56 430.53 1575.52 432.576 1572.91 434C1570.33 435.455 1567.35 436.182 1563.95 436.182C1563.71 436.182 1563.45 436.167 1563.18 436.136C1562.91 436.136 1562.59 436.106 1562.23 436.045L1562.5 430.909C1562.74 430.909 1562.97 430.909 1563.18 430.909C1563.39 430.909 1563.62 430.909 1563.86 430.909C1567.26 430.909 1570.09 429.803 1572.36 427.591C1574.64 425.409 1575.77 422.379 1575.77 418.5V340.182ZM1578.5 327.818C1577.26 327.818 1576.2 327.394 1575.32 326.545C1574.44 325.697 1574 324.667 1574 323.455C1574 322.242 1574.44 321.212 1575.32 320.364C1576.2 319.515 1577.26 319.091 1578.5 319.091C1579.71 319.091 1580.76 319.515 1581.64 320.364C1582.52 321.212 1582.95 322.242 1582.95 323.455C1582.95 324.667 1582.52 325.697 1581.64 326.545C1580.76 327.394 1579.71 327.818 1578.5 327.818ZM1631.73 411.455C1625.42 411.455 1619.94 409.894 1615.27 406.773C1610.61 403.652 1607 399.379 1604.45 393.955C1601.91 388.53 1600.64 382.348 1600.64 375.409C1600.64 368.439 1601.91 362.227 1604.45 356.773C1607.03 351.318 1610.56 347.015 1615.05 343.864C1619.53 340.712 1624.65 339.136 1630.41 339.136C1634.32 339.136 1638.02 339.924 1641.5 341.5C1645.02 343.045 1648.11 345.288 1650.77 348.227C1653.47 351.167 1655.58 354.712 1657.09 358.864C1658.64 363.015 1659.41 367.682 1659.41 372.864V376.318H1604.14V371.273H1653.86C1653.86 366.212 1652.83 361.652 1650.77 357.591C1648.71 353.53 1645.91 350.303 1642.36 347.909C1638.82 345.515 1634.83 344.318 1630.41 344.318C1625.77 344.318 1621.64 345.621 1618 348.227C1614.39 350.803 1611.53 354.288 1609.41 358.682C1607.32 363.076 1606.23 367.985 1606.14 373.409V375.682C1606.14 381.5 1607.15 386.727 1609.18 391.364C1611.24 395.97 1614.18 399.621 1618 402.318C1621.82 404.985 1626.39 406.318 1631.73 406.318C1635.55 406.318 1638.8 405.682 1641.5 404.409C1644.23 403.106 1646.45 401.53 1648.18 399.682C1649.91 397.833 1651.21 396.045 1652.09 394.318L1657.14 396.364C1656.08 398.697 1654.42 401.03 1652.18 403.364C1649.97 405.667 1647.15 407.591 1643.73 409.136C1640.33 410.682 1636.33 411.455 1631.73 411.455ZM1704.68 411.455C1698.74 411.455 1693.52 409.894 1689 406.773C1684.48 403.621 1680.95 399.318 1678.41 393.864C1675.89 388.409 1674.64 382.227 1674.64 375.318C1674.64 368.409 1675.91 362.227 1678.45 356.773C1681 351.318 1684.53 347.015 1689.05 343.864C1693.56 340.712 1698.76 339.136 1704.64 339.136C1709.06 339.136 1713.09 340.045 1716.73 341.864C1720.39 343.682 1723.42 346.212 1725.82 349.455C1728.24 352.697 1729.79 356.455 1730.45 360.727H1724.82C1723.91 356 1721.64 352.091 1718 349C1714.39 345.879 1709.95 344.318 1704.68 344.318C1699.95 344.318 1695.74 345.652 1692.05 348.318C1688.35 350.955 1685.44 354.606 1683.32 359.273C1681.2 363.909 1680.14 369.227 1680.14 375.227C1680.14 381.136 1681.17 386.439 1683.23 391.136C1685.29 395.803 1688.17 399.5 1691.86 402.227C1695.56 404.955 1699.83 406.318 1704.68 406.318C1708.11 406.318 1711.23 405.636 1714.05 404.273C1716.89 402.909 1719.27 400.97 1721.18 398.455C1723.09 395.939 1724.35 393 1724.95 389.636H1730.59C1729.92 393.939 1728.41 397.727 1726.05 401C1723.68 404.273 1720.67 406.833 1717 408.682C1713.33 410.53 1709.23 411.455 1704.68 411.455ZM1774.18 340.182V345.136H1743.68V340.182H1774.18ZM1754 323.455H1759.5V393.5C1759.5 396.348 1760.05 398.682 1761.14 400.5C1762.26 402.288 1763.71 403.621 1765.5 404.5C1767.32 405.348 1769.26 405.773 1771.32 405.773C1772.32 405.773 1773.18 405.697 1773.91 405.545C1774.67 405.394 1775.38 405.197 1776.05 404.955L1777.41 410C1776.56 410.303 1775.62 410.561 1774.59 410.773C1773.56 411.015 1772.35 411.136 1770.95 411.136C1768.05 411.136 1765.29 410.485 1762.68 409.182C1760.11 407.879 1758.02 405.985 1756.41 403.5C1754.8 401.015 1754 398.015 1754 394.5V323.455ZM1808.89 382.864V378.409C1808.92 374.621 1809.37 371.439 1810.25 368.864C1811.13 366.288 1812.52 364 1814.43 362C1816.34 359.97 1818.84 357.924 1821.93 355.864C1824.57 354.045 1826.72 352.273 1828.39 350.545C1830.05 348.788 1831.27 346.955 1832.02 345.045C1832.81 343.136 1833.2 341.045 1833.2 338.773C1833.2 335.227 1832.36 332.106 1830.66 329.409C1828.99 326.682 1826.72 324.561 1823.84 323.045C1820.99 321.5 1817.78 320.727 1814.2 320.727C1810.63 320.727 1807.39 321.53 1804.48 323.136C1801.57 324.742 1799.23 327 1797.48 329.909C1795.72 332.818 1794.8 336.242 1794.7 340.182H1788.93C1789.02 335.364 1790.17 331.106 1792.39 327.409C1794.63 323.712 1797.64 320.833 1801.43 318.773C1805.22 316.682 1809.48 315.636 1814.2 315.636C1818.96 315.636 1823.19 316.652 1826.89 318.682C1830.58 320.682 1833.48 323.439 1835.57 326.955C1837.69 330.47 1838.75 334.47 1838.75 338.955C1838.75 341.773 1838.3 344.364 1837.39 346.727C1836.48 349.061 1835.05 351.273 1833.11 353.364C1831.17 355.455 1828.66 357.576 1825.57 359.727C1822.75 361.667 1820.52 363.515 1818.89 365.273C1817.28 367.03 1816.14 368.939 1815.48 371C1814.81 373.061 1814.48 375.53 1814.48 378.409V382.864H1808.89ZM1811.8 410.591C1810.43 410.591 1809.27 410.121 1808.3 409.182C1807.36 408.212 1806.89 407.045 1806.89 405.682C1806.89 404.348 1807.36 403.197 1808.3 402.227C1809.27 401.258 1810.43 400.773 1811.8 400.773C1813.16 400.773 1814.31 401.258 1815.25 402.227C1816.22 403.197 1816.7 404.348 1816.7 405.682C1816.7 406.591 1816.48 407.424 1816.02 408.182C1815.6 408.909 1815.01 409.5 1814.25 409.955C1813.52 410.379 1812.7 410.591 1811.8 410.591Z" fill="black"/>
<path d="M395 467H1554.18" stroke="#6A6A6A" stroke-width="4"/>
<path d="M865.922 1170H857.203V1153.2H859.172V1168.22H865.922V1170ZM877.887 1164.48H869.414C869.445 1165.82 869.805 1166.85 870.492 1167.57C871.18 1168.3 872.125 1168.66 873.328 1168.66C874.68 1168.66 875.922 1168.22 877.055 1167.33V1169.13C876 1169.9 874.605 1170.28 872.871 1170.28C871.176 1170.28 869.844 1169.74 868.875 1168.65C867.906 1167.56 867.422 1166.02 867.422 1164.05C867.422 1162.18 867.949 1160.66 869.004 1159.49C870.066 1158.31 871.383 1157.72 872.953 1157.72C874.523 1157.72 875.738 1158.23 876.598 1159.24C877.457 1160.26 877.887 1161.67 877.887 1163.47V1164.48ZM875.918 1162.85C875.91 1161.74 875.641 1160.88 875.109 1160.26C874.586 1159.64 873.855 1159.34 872.918 1159.34C872.012 1159.34 871.242 1159.66 870.609 1160.31C869.977 1160.96 869.586 1161.8 869.438 1162.85H875.918ZM880.078 1169.57V1167.5C881.125 1168.28 882.277 1168.66 883.535 1168.66C885.223 1168.66 886.066 1168.1 886.066 1166.98C886.066 1166.66 885.992 1166.39 885.844 1166.17C885.703 1165.94 885.508 1165.74 885.258 1165.57C885.016 1165.4 884.727 1165.25 884.391 1165.11C884.062 1164.97 883.707 1164.83 883.324 1164.68C882.793 1164.47 882.324 1164.26 881.918 1164.05C881.52 1163.83 881.184 1163.59 880.91 1163.32C880.645 1163.05 880.441 1162.74 880.301 1162.39C880.168 1162.05 880.102 1161.65 880.102 1161.19C880.102 1160.62 880.23 1160.13 880.488 1159.7C880.746 1159.26 881.09 1158.9 881.52 1158.61C881.949 1158.31 882.438 1158.09 882.984 1157.94C883.539 1157.79 884.109 1157.72 884.695 1157.72C885.734 1157.72 886.664 1157.9 887.484 1158.26V1160.2C886.602 1159.62 885.586 1159.34 884.438 1159.34C884.078 1159.34 883.754 1159.38 883.465 1159.46C883.176 1159.54 882.926 1159.66 882.715 1159.8C882.512 1159.95 882.352 1160.13 882.234 1160.34C882.125 1160.55 882.07 1160.77 882.07 1161.02C882.07 1161.34 882.125 1161.6 882.234 1161.81C882.352 1162.02 882.52 1162.21 882.738 1162.37C882.957 1162.54 883.223 1162.68 883.535 1162.82C883.848 1162.95 884.203 1163.09 884.602 1163.25C885.133 1163.45 885.609 1163.66 886.031 1163.88C886.453 1164.09 886.812 1164.34 887.109 1164.61C887.406 1164.88 887.633 1165.18 887.789 1165.54C887.953 1165.89 888.035 1166.3 888.035 1166.79C888.035 1167.38 887.902 1167.9 887.637 1168.34C887.379 1168.77 887.031 1169.14 886.594 1169.43C886.156 1169.71 885.652 1169.93 885.082 1170.07C884.512 1170.21 883.914 1170.28 883.289 1170.28C882.055 1170.28 880.984 1170.04 880.078 1169.57ZM907.781 1154.98H902.93V1170H900.961V1154.98H896.121V1153.2H907.781V1154.98ZM920.133 1170H918.211V1163.09C918.211 1160.59 917.281 1159.34 915.422 1159.34C914.484 1159.34 913.695 1159.7 913.055 1160.43C912.414 1161.14 912.094 1162.07 912.094 1163.2V1170H910.172V1152.23H912.094V1159.99H912.141C913.062 1158.48 914.375 1157.72 916.078 1157.72C918.781 1157.72 920.133 1159.35 920.133 1162.61V1170ZM928.781 1170.28C927.008 1170.28 925.59 1169.72 924.527 1168.61C923.473 1167.48 922.945 1165.99 922.945 1164.14C922.945 1162.12 923.496 1160.55 924.598 1159.42C925.699 1158.29 927.188 1157.72 929.062 1157.72C930.852 1157.72 932.246 1158.27 933.246 1159.37C934.254 1160.47 934.758 1162 934.758 1163.95C934.758 1165.87 934.215 1167.4 933.129 1168.56C932.051 1169.71 930.602 1170.28 928.781 1170.28ZM928.922 1159.34C927.688 1159.34 926.711 1159.76 925.992 1160.6C925.273 1161.44 924.914 1162.59 924.914 1164.07C924.914 1165.49 925.277 1166.61 926.004 1167.43C926.73 1168.25 927.703 1168.66 928.922 1168.66C930.164 1168.66 931.117 1168.26 931.781 1167.46C932.453 1166.65 932.789 1165.51 932.789 1164.02C932.789 1162.52 932.453 1161.37 931.781 1160.55C931.117 1159.74 930.164 1159.34 928.922 1159.34ZM954.867 1170H952.945V1163.11C952.945 1161.78 952.738 1160.82 952.324 1160.23C951.918 1159.63 951.23 1159.34 950.262 1159.34C949.441 1159.34 948.742 1159.71 948.164 1160.46C947.594 1161.21 947.309 1162.11 947.309 1163.16V1170H945.387V1162.88C945.387 1160.52 944.477 1159.34 942.656 1159.34C941.812 1159.34 941.117 1159.69 940.57 1160.4C940.023 1161.11 939.75 1162.02 939.75 1163.16V1170H937.828V1158H939.75V1159.9H939.797C940.648 1158.45 941.891 1157.72 943.523 1157.72C944.344 1157.72 945.059 1157.95 945.668 1158.41C946.277 1158.86 946.695 1159.46 946.922 1160.2C947.812 1158.55 949.141 1157.72 950.906 1157.72C953.547 1157.72 954.867 1159.35 954.867 1162.61V1170ZM968.145 1164.48H959.672C959.703 1165.82 960.062 1166.85 960.75 1167.57C961.438 1168.3 962.383 1168.66 963.586 1168.66C964.938 1168.66 966.18 1168.22 967.312 1167.33V1169.13C966.258 1169.9 964.863 1170.28 963.129 1170.28C961.434 1170.28 960.102 1169.74 959.133 1168.65C958.164 1167.56 957.68 1166.02 957.68 1164.05C957.68 1162.18 958.207 1160.66 959.262 1159.49C960.324 1158.31 961.641 1157.72 963.211 1157.72C964.781 1157.72 965.996 1158.23 966.855 1159.24C967.715 1160.26 968.145 1161.67 968.145 1163.47V1164.48ZM966.176 1162.85C966.168 1161.74 965.898 1160.88 965.367 1160.26C964.844 1159.64 964.113 1159.34 963.176 1159.34C962.27 1159.34 961.5 1159.66 960.867 1160.31C960.234 1160.96 959.844 1161.8 959.695 1162.85H966.176ZM972.984 1170H971.062V1152.23H972.984V1170ZM977.859 1154.95C977.516 1154.95 977.223 1154.84 976.98 1154.6C976.738 1154.37 976.617 1154.07 976.617 1153.71C976.617 1153.35 976.738 1153.05 976.98 1152.82C977.223 1152.58 977.516 1152.46 977.859 1152.46C978.211 1152.46 978.508 1152.58 978.75 1152.82C979 1153.05 979.125 1153.35 979.125 1153.71C979.125 1154.05 979 1154.35 978.75 1154.59C978.508 1154.83 978.211 1154.95 977.859 1154.95ZM978.797 1170H976.875V1158H978.797V1170ZM992.648 1170H990.727V1163.16C990.727 1160.61 989.797 1159.34 987.938 1159.34C986.977 1159.34 986.18 1159.7 985.547 1160.43C984.922 1161.14 984.609 1162.05 984.609 1163.16V1170H982.688V1158H984.609V1159.99H984.656C985.562 1158.48 986.875 1157.72 988.594 1157.72C989.906 1157.72 990.91 1158.14 991.605 1159C992.301 1159.84 992.648 1161.06 992.648 1162.66V1170ZM1002.42 1164.07H996.023V1162.56H1002.42V1164.07ZM1016.09 1154.98H1011.23V1170H1009.27V1154.98H1004.43V1153.2H1016.09V1154.98ZM1028.18 1170H1026.26V1168.1H1026.21C1025.41 1169.55 1024.18 1170.28 1022.51 1170.28C1019.65 1170.28 1018.22 1168.58 1018.22 1165.17V1158H1020.13V1164.87C1020.13 1167.4 1021.1 1168.66 1023.04 1168.66C1023.97 1168.66 1024.74 1168.32 1025.34 1167.63C1025.95 1166.94 1026.26 1166.03 1026.26 1164.91V1158H1028.18V1170ZM1040.66 1170H1038.74V1168.12H1038.69C1037.86 1169.56 1036.62 1170.28 1035 1170.28C1033.8 1170.28 1032.87 1169.96 1032.19 1169.33C1031.52 1168.7 1031.18 1167.86 1031.18 1166.81C1031.18 1164.57 1032.5 1163.27 1035.14 1162.9L1038.74 1162.39C1038.74 1160.36 1037.91 1159.34 1036.27 1159.34C1034.82 1159.34 1033.52 1159.83 1032.35 1160.81V1158.84C1033.53 1158.09 1034.89 1157.72 1036.43 1157.72C1039.25 1157.72 1040.66 1159.21 1040.66 1162.2V1170ZM1038.74 1163.93L1035.84 1164.33C1034.95 1164.45 1034.28 1164.68 1033.83 1165C1033.38 1165.31 1033.15 1165.87 1033.15 1166.67C1033.15 1167.26 1033.36 1167.74 1033.77 1168.11C1034.19 1168.48 1034.75 1168.66 1035.45 1168.66C1036.4 1168.66 1037.18 1168.33 1037.8 1167.67C1038.43 1167 1038.74 1166.15 1038.74 1165.12V1163.93ZM1046.2 1170H1044.28V1152.23H1046.2V1170Z" fill="black"/>
<line x1="875.662" y1="1180.06" x2="1029.97" y2="1180.06" stroke="#6F6F6F"/>
<path d="M458.781 527.312H451.315C451.178 526.347 450.9 525.489 450.479 524.739C450.059 523.977 449.519 523.33 448.86 522.795C448.201 522.261 447.44 521.852 446.576 521.568C445.724 521.284 444.798 521.142 443.798 521.142C441.991 521.142 440.417 521.591 439.076 522.489C437.735 523.375 436.695 524.67 435.957 526.375C435.218 528.068 434.849 530.125 434.849 532.545C434.849 535.034 435.218 537.125 435.957 538.818C436.707 540.511 437.752 541.79 439.093 542.653C440.434 543.517 441.985 543.949 443.746 543.949C444.735 543.949 445.65 543.818 446.491 543.557C447.343 543.295 448.099 542.915 448.758 542.415C449.417 541.903 449.962 541.284 450.394 540.557C450.837 539.83 451.144 539 451.315 538.068L458.781 538.102C458.587 539.705 458.104 541.25 457.332 542.739C456.57 544.216 455.542 545.54 454.246 546.71C452.962 547.869 451.428 548.79 449.644 549.472C447.871 550.142 445.866 550.477 443.627 550.477C440.513 550.477 437.729 549.773 435.275 548.364C432.832 546.955 430.9 544.915 429.479 542.244C428.07 539.574 427.366 536.341 427.366 532.545C427.366 528.739 428.082 525.5 429.513 522.83C430.945 520.159 432.888 518.125 435.343 516.727C437.798 515.318 440.559 514.614 443.627 514.614C445.65 514.614 447.525 514.898 449.252 515.466C450.991 516.034 452.531 516.864 453.871 517.955C455.212 519.034 456.303 520.358 457.144 521.926C457.996 523.494 458.542 525.29 458.781 527.312ZM475.766 550.511C473.119 550.511 470.829 549.949 468.897 548.824C466.977 547.687 465.494 546.108 464.448 544.085C463.403 542.051 462.88 539.693 462.88 537.011C462.88 534.307 463.403 531.943 464.448 529.92C465.494 527.886 466.977 526.307 468.897 525.182C470.829 524.045 473.119 523.477 475.766 523.477C478.414 523.477 480.698 524.045 482.619 525.182C484.55 526.307 486.039 527.886 487.085 529.92C488.13 531.943 488.653 534.307 488.653 537.011C488.653 539.693 488.13 542.051 487.085 544.085C486.039 546.108 484.55 547.687 482.619 548.824C480.698 549.949 478.414 550.511 475.766 550.511ZM475.8 544.886C477.005 544.886 478.011 544.545 478.817 543.864C479.624 543.17 480.232 542.227 480.641 541.034C481.062 539.841 481.272 538.483 481.272 536.96C481.272 535.438 481.062 534.08 480.641 532.886C480.232 531.693 479.624 530.75 478.817 530.057C478.011 529.364 477.005 529.017 475.8 529.017C474.585 529.017 473.562 529.364 472.732 530.057C471.914 530.75 471.295 531.693 470.874 532.886C470.465 534.08 470.261 535.438 470.261 536.96C470.261 538.483 470.465 539.841 470.874 541.034C471.295 542.227 471.914 543.17 472.732 543.864C473.562 544.545 474.585 544.886 475.8 544.886ZM500.636 534.864V550H493.374V523.818H500.295V528.438H500.602C501.181 526.915 502.153 525.71 503.516 524.824C504.88 523.926 506.533 523.477 508.477 523.477C510.295 523.477 511.88 523.875 513.232 524.67C514.585 525.466 515.636 526.602 516.386 528.08C517.136 529.545 517.511 531.295 517.511 533.33V550H510.249V534.625C510.261 533.023 509.852 531.773 509.022 530.875C508.192 529.966 507.05 529.511 505.596 529.511C504.619 529.511 503.755 529.722 503.005 530.142C502.266 530.562 501.687 531.176 501.266 531.983C500.857 532.778 500.647 533.739 500.636 534.864ZM537.16 523.818V529.273H521.393V523.818H537.16ZM524.972 517.545H532.234V541.955C532.234 542.625 532.336 543.148 532.54 543.523C532.745 543.886 533.029 544.142 533.393 544.29C533.768 544.437 534.2 544.511 534.688 544.511C535.029 544.511 535.37 544.483 535.711 544.426C536.052 544.358 536.313 544.307 536.495 544.273L537.637 549.676C537.273 549.79 536.762 549.92 536.103 550.068C535.444 550.227 534.643 550.324 533.7 550.358C531.95 550.426 530.415 550.193 529.097 549.659C527.79 549.125 526.773 548.295 526.046 547.17C525.319 546.045 524.961 544.625 524.972 542.909V517.545ZM549.356 550.494C547.685 550.494 546.197 550.205 544.89 549.625C543.583 549.034 542.549 548.165 541.788 547.017C541.038 545.858 540.663 544.415 540.663 542.688C540.663 541.233 540.93 540.011 541.464 539.023C541.998 538.034 542.725 537.239 543.646 536.636C544.566 536.034 545.612 535.58 546.782 535.273C547.964 534.966 549.202 534.75 550.498 534.625C552.021 534.466 553.248 534.318 554.18 534.182C555.112 534.034 555.788 533.818 556.208 533.534C556.629 533.25 556.839 532.83 556.839 532.273V532.17C556.839 531.091 556.498 530.256 555.816 529.665C555.146 529.074 554.191 528.778 552.952 528.778C551.646 528.778 550.606 529.068 549.833 529.648C549.06 530.216 548.549 530.932 548.299 531.795L541.583 531.25C541.924 529.659 542.594 528.284 543.594 527.125C544.594 525.955 545.884 525.057 547.464 524.432C549.055 523.795 550.896 523.477 552.987 523.477C554.441 523.477 555.833 523.648 557.163 523.989C558.504 524.33 559.691 524.858 560.725 525.574C561.771 526.29 562.594 527.21 563.197 528.335C563.799 529.449 564.1 530.784 564.1 532.341V550H557.214V546.369H557.009C556.589 547.188 556.026 547.909 555.322 548.534C554.617 549.148 553.771 549.631 552.782 549.983C551.793 550.324 550.651 550.494 549.356 550.494ZM551.435 545.483C552.504 545.483 553.447 545.273 554.265 544.852C555.083 544.42 555.725 543.841 556.191 543.114C556.657 542.386 556.89 541.562 556.89 540.642V537.864C556.663 538.011 556.35 538.148 555.952 538.273C555.566 538.386 555.129 538.494 554.64 538.597C554.151 538.687 553.663 538.773 553.174 538.852C552.685 538.92 552.242 538.983 551.844 539.04C550.992 539.165 550.248 539.364 549.612 539.636C548.975 539.909 548.481 540.278 548.129 540.744C547.776 541.199 547.6 541.767 547.6 542.449C547.6 543.438 547.958 544.193 548.674 544.716C549.401 545.227 550.322 545.483 551.435 545.483ZM581.563 550.511C578.881 550.511 576.575 549.943 574.643 548.807C572.722 547.659 571.245 546.068 570.211 544.034C569.188 542 568.677 539.659 568.677 537.011C568.677 534.33 569.194 531.977 570.228 529.955C571.273 527.92 572.756 526.335 574.677 525.199C576.597 524.051 578.881 523.477 581.529 523.477C583.813 523.477 585.813 523.892 587.529 524.722C589.245 525.551 590.603 526.716 591.603 528.216C592.603 529.716 593.154 531.477 593.256 533.5H586.404C586.211 532.193 585.7 531.142 584.87 530.347C584.052 529.54 582.978 529.136 581.648 529.136C580.523 529.136 579.54 529.443 578.7 530.057C577.87 530.659 577.222 531.54 576.756 532.699C576.29 533.858 576.058 535.261 576.058 536.909C576.058 538.58 576.285 540 576.739 541.17C577.205 542.341 577.859 543.233 578.7 543.847C579.54 544.46 580.523 544.767 581.648 544.767C582.478 544.767 583.222 544.597 583.881 544.256C584.552 543.915 585.103 543.42 585.535 542.773C585.978 542.114 586.268 541.324 586.404 540.403H593.256C593.143 542.403 592.597 544.165 591.62 545.688C590.654 547.199 589.319 548.381 587.614 549.233C585.91 550.085 583.893 550.511 581.563 550.511ZM611.832 523.818V529.273H596.065V523.818H611.832ZM599.644 517.545H606.906V541.955C606.906 542.625 607.008 543.148 607.212 543.523C607.417 543.886 607.701 544.142 608.065 544.29C608.44 544.437 608.871 544.511 609.36 544.511C609.701 544.511 610.042 544.483 610.383 544.426C610.724 544.358 610.985 544.307 611.167 544.273L612.309 549.676C611.945 549.79 611.434 549.92 610.775 550.068C610.116 550.227 609.315 550.324 608.371 550.358C606.621 550.426 605.087 550.193 603.769 549.659C602.462 549.125 601.445 548.295 600.718 547.17C599.991 546.045 599.633 544.625 599.644 542.909V517.545ZM627.671 550V523.818H634.592V528.438H634.898C635.444 526.903 636.353 525.693 637.626 524.807C638.898 523.92 640.421 523.477 642.194 523.477C643.989 523.477 645.518 523.926 646.779 524.824C648.04 525.71 648.881 526.915 649.302 528.438H649.575C650.109 526.938 651.075 525.739 652.472 524.841C653.881 523.932 655.546 523.477 657.467 523.477C659.91 523.477 661.893 524.256 663.415 525.812C664.95 527.358 665.717 529.551 665.717 532.392V550H658.472V533.824C658.472 532.369 658.086 531.278 657.313 530.551C656.54 529.824 655.575 529.46 654.415 529.46C653.097 529.46 652.069 529.881 651.33 530.722C650.592 531.551 650.222 532.648 650.222 534.011V550H643.183V533.67C643.183 532.386 642.813 531.364 642.075 530.602C641.347 529.841 640.387 529.46 639.194 529.46C638.387 529.46 637.66 529.665 637.012 530.074C636.376 530.472 635.87 531.034 635.495 531.761C635.12 532.477 634.933 533.318 634.933 534.284V550H627.671ZM683.384 550.511C680.691 550.511 678.373 549.966 676.43 548.875C674.498 547.773 673.009 546.216 671.964 544.205C670.918 542.182 670.396 539.79 670.396 537.028C670.396 534.335 670.918 531.972 671.964 529.938C673.009 527.903 674.481 526.318 676.379 525.182C678.288 524.045 680.526 523.477 683.094 523.477C684.822 523.477 686.43 523.756 687.918 524.312C689.418 524.858 690.725 525.682 691.839 526.784C692.964 527.886 693.839 529.273 694.464 530.943C695.089 532.602 695.401 534.545 695.401 536.773V538.767H673.293V534.267H688.566C688.566 533.222 688.339 532.295 687.884 531.489C687.43 530.682 686.799 530.051 685.992 529.597C685.197 529.131 684.271 528.898 683.214 528.898C682.112 528.898 681.134 529.153 680.282 529.665C679.441 530.165 678.782 530.841 678.305 531.693C677.827 532.534 677.583 533.472 677.572 534.506V538.784C677.572 540.08 677.81 541.199 678.288 542.142C678.776 543.085 679.464 543.812 680.35 544.324C681.237 544.835 682.288 545.091 683.504 545.091C684.31 545.091 685.049 544.977 685.719 544.75C686.39 544.523 686.964 544.182 687.441 543.727C687.918 543.273 688.282 542.716 688.532 542.057L695.248 542.5C694.907 544.114 694.208 545.523 693.151 546.727C692.106 547.92 690.754 548.852 689.094 549.523C687.447 550.182 685.543 550.511 683.384 550.511ZM711.249 550V523.818H718.511V550H711.249ZM714.897 520.443C713.817 520.443 712.891 520.085 712.119 519.369C711.357 518.642 710.977 517.773 710.977 516.761C710.977 515.761 711.357 514.903 712.119 514.188C712.891 513.46 713.817 513.097 714.897 513.097C715.977 513.097 716.897 513.46 717.658 514.188C718.431 514.903 718.817 515.761 718.817 516.761C718.817 517.773 718.431 518.642 717.658 519.369C716.897 520.085 715.977 520.443 714.897 520.443ZM738.407 523.818V529.273H722.248V523.818H738.407ZM725.947 550V521.926C725.947 520.028 726.316 518.455 727.055 517.205C727.805 515.955 728.827 515.017 730.123 514.392C731.418 513.767 732.89 513.455 734.538 513.455C735.651 513.455 736.668 513.54 737.589 513.71C738.521 513.881 739.214 514.034 739.668 514.17L738.373 519.625C738.089 519.534 737.737 519.449 737.316 519.369C736.907 519.29 736.487 519.25 736.055 519.25C734.987 519.25 734.242 519.5 733.822 520C733.401 520.489 733.191 521.176 733.191 522.062V550H725.947ZM758.435 559.818C757.515 559.818 756.651 559.744 755.844 559.597C755.049 559.46 754.39 559.284 753.867 559.068L755.504 553.648C756.356 553.909 757.123 554.051 757.805 554.074C758.498 554.097 759.094 553.938 759.594 553.597C760.106 553.256 760.521 552.676 760.839 551.858L761.265 550.75L751.873 523.818H759.509L764.93 543.045H765.202L770.674 523.818H778.362L768.185 552.83C767.697 554.239 767.032 555.466 766.191 556.511C765.362 557.568 764.31 558.381 763.038 558.949C761.765 559.528 760.231 559.818 758.435 559.818ZM793.063 550.511C790.415 550.511 788.126 549.949 786.194 548.824C784.273 547.687 782.79 546.108 781.745 544.085C780.7 542.051 780.177 539.693 780.177 537.011C780.177 534.307 780.7 531.943 781.745 529.92C782.79 527.886 784.273 526.307 786.194 525.182C788.126 524.045 790.415 523.477 793.063 523.477C795.711 523.477 797.995 524.045 799.915 525.182C801.847 526.307 803.336 527.886 804.381 529.92C805.427 531.943 805.95 534.307 805.95 537.011C805.95 539.693 805.427 542.051 804.381 544.085C803.336 546.108 801.847 547.687 799.915 548.824C797.995 549.949 795.711 550.511 793.063 550.511ZM793.097 544.886C794.302 544.886 795.308 544.545 796.114 543.864C796.921 543.17 797.529 542.227 797.938 541.034C798.359 539.841 798.569 538.483 798.569 536.96C798.569 535.438 798.359 534.08 797.938 532.886C797.529 531.693 796.921 530.75 796.114 530.057C795.308 529.364 794.302 529.017 793.097 529.017C791.881 529.017 790.859 529.364 790.029 530.057C789.211 530.75 788.592 531.693 788.171 532.886C787.762 534.08 787.558 535.438 787.558 536.96C787.558 538.483 787.762 539.841 788.171 541.034C788.592 542.227 789.211 543.17 790.029 543.864C790.859 544.545 791.881 544.886 793.097 544.886ZM827.461 538.852V523.818H834.722V550H827.751V545.244H827.478C826.887 546.778 825.904 548.011 824.529 548.943C823.165 549.875 821.501 550.341 819.535 550.341C817.785 550.341 816.245 549.943 814.915 549.148C813.586 548.352 812.546 547.222 811.796 545.756C811.058 544.29 810.683 542.534 810.671 540.489V523.818H817.933V539.193C817.944 540.739 818.359 541.96 819.177 542.858C819.995 543.756 821.092 544.205 822.467 544.205C823.342 544.205 824.16 544.006 824.921 543.608C825.683 543.199 826.296 542.597 826.762 541.801C827.239 541.006 827.472 540.023 827.461 538.852ZM859.106 550.494C857.435 550.494 855.947 550.205 854.64 549.625C853.333 549.034 852.299 548.165 851.538 547.017C850.788 545.858 850.413 544.415 850.413 542.688C850.413 541.233 850.68 540.011 851.214 539.023C851.748 538.034 852.475 537.239 853.396 536.636C854.316 536.034 855.362 535.58 856.532 535.273C857.714 534.966 858.952 534.75 860.248 534.625C861.771 534.466 862.998 534.318 863.93 534.182C864.862 534.034 865.538 533.818 865.958 533.534C866.379 533.25 866.589 532.83 866.589 532.273V532.17C866.589 531.091 866.248 530.256 865.566 529.665C864.896 529.074 863.941 528.778 862.702 528.778C861.396 528.778 860.356 529.068 859.583 529.648C858.81 530.216 858.299 530.932 858.049 531.795L851.333 531.25C851.674 529.659 852.344 528.284 853.344 527.125C854.344 525.955 855.634 525.057 857.214 524.432C858.805 523.795 860.646 523.477 862.737 523.477C864.191 523.477 865.583 523.648 866.913 523.989C868.254 524.33 869.441 524.858 870.475 525.574C871.521 526.29 872.344 527.21 872.947 528.335C873.549 529.449 873.85 530.784 873.85 532.341V550H866.964V546.369H866.759C866.339 547.188 865.776 547.909 865.072 548.534C864.367 549.148 863.521 549.631 862.532 549.983C861.543 550.324 860.401 550.494 859.106 550.494ZM861.185 545.483C862.254 545.483 863.197 545.273 864.015 544.852C864.833 544.42 865.475 543.841 865.941 543.114C866.407 542.386 866.64 541.562 866.64 540.642V537.864C866.413 538.011 866.1 538.148 865.702 538.273C865.316 538.386 864.879 538.494 864.39 538.597C863.901 538.687 863.413 538.773 862.924 538.852C862.435 538.92 861.992 538.983 861.594 539.04C860.742 539.165 859.998 539.364 859.362 539.636C858.725 539.909 858.231 540.278 857.879 540.744C857.526 541.199 857.35 541.767 857.35 542.449C857.35 543.438 857.708 544.193 858.424 544.716C859.151 545.227 860.072 545.483 861.185 545.483ZM879.484 550V523.818H886.523V528.386H886.796C887.273 526.761 888.075 525.534 889.2 524.705C890.325 523.864 891.62 523.443 893.086 523.443C893.45 523.443 893.842 523.466 894.262 523.511C894.683 523.557 895.052 523.619 895.37 523.699V530.142C895.029 530.04 894.558 529.949 893.955 529.869C893.353 529.79 892.802 529.75 892.302 529.75C891.234 529.75 890.279 529.983 889.438 530.449C888.609 530.903 887.95 531.54 887.461 532.358C886.984 533.176 886.745 534.119 886.745 535.188V550H879.484ZM909.837 550.511C907.144 550.511 904.826 549.966 902.883 548.875C900.951 547.773 899.462 546.216 898.417 544.205C897.371 542.182 896.849 539.79 896.849 537.028C896.849 534.335 897.371 531.972 898.417 529.938C899.462 527.903 900.934 526.318 902.832 525.182C904.741 524.045 906.979 523.477 909.548 523.477C911.275 523.477 912.883 523.756 914.371 524.312C915.871 524.858 917.178 525.682 918.292 526.784C919.417 527.886 920.292 529.273 920.917 530.943C921.542 532.602 921.854 534.545 921.854 536.773V538.767H899.746V534.267H915.019C915.019 533.222 914.792 532.295 914.337 531.489C913.883 530.682 913.252 530.051 912.445 529.597C911.65 529.131 910.724 528.898 909.667 528.898C908.565 528.898 907.587 529.153 906.735 529.665C905.894 530.165 905.235 530.841 904.758 531.693C904.281 532.534 904.036 533.472 904.025 534.506V538.784C904.025 540.08 904.263 541.199 904.741 542.142C905.229 543.085 905.917 543.812 906.803 544.324C907.69 544.835 908.741 545.091 909.957 545.091C910.763 545.091 911.502 544.977 912.173 544.75C912.843 544.523 913.417 544.182 913.894 543.727C914.371 543.273 914.735 542.716 914.985 542.057L921.701 542.5C921.36 544.114 920.661 545.523 919.604 546.727C918.559 547.92 917.207 548.852 915.548 549.523C913.9 550.182 911.996 550.511 909.837 550.511ZM937.702 550V523.818H944.964V550H937.702ZM941.35 520.443C940.271 520.443 939.344 520.085 938.572 519.369C937.81 518.642 937.43 517.773 937.43 516.761C937.43 515.761 937.81 514.903 938.572 514.188C939.344 513.46 940.271 513.097 941.35 513.097C942.43 513.097 943.35 513.46 944.112 514.188C944.884 514.903 945.271 515.761 945.271 516.761C945.271 517.773 944.884 518.642 944.112 519.369C943.35 520.085 942.43 520.443 941.35 520.443ZM958.042 534.864V550H950.781V523.818H957.701V528.438H958.008C958.587 526.915 959.559 525.71 960.923 524.824C962.286 523.926 963.94 523.477 965.883 523.477C967.701 523.477 969.286 523.875 970.638 524.67C971.991 525.466 973.042 526.602 973.792 528.08C974.542 529.545 974.917 531.295 974.917 533.33V550H967.656V534.625C967.667 533.023 967.258 531.773 966.428 530.875C965.599 529.966 964.457 529.511 963.002 529.511C962.025 529.511 961.161 529.722 960.411 530.142C959.673 530.562 959.093 531.176 958.673 531.983C958.263 532.778 958.053 533.739 958.042 534.864ZM994.566 523.818V529.273H978.799V523.818H994.566ZM982.379 517.545H989.64V541.955C989.64 542.625 989.742 543.148 989.947 543.523C990.151 543.886 990.435 544.142 990.799 544.29C991.174 544.437 991.606 544.511 992.094 544.511C992.435 544.511 992.776 544.483 993.117 544.426C993.458 544.358 993.719 544.307 993.901 544.273L995.043 549.676C994.68 549.79 994.168 549.92 993.509 550.068C992.85 550.227 992.049 550.324 991.106 550.358C989.356 550.426 987.822 550.193 986.504 549.659C985.197 549.125 984.18 548.295 983.452 547.17C982.725 546.045 982.367 544.625 982.379 542.909V517.545ZM1010.95 550.511C1008.25 550.511 1005.94 549.966 1003.99 548.875C1002.06 547.773 1000.57 546.216 999.526 544.205C998.481 542.182 997.958 539.79 997.958 537.028C997.958 534.335 998.481 531.972 999.526 529.938C1000.57 527.903 1002.04 526.318 1003.94 525.182C1005.85 524.045 1008.09 523.477 1010.66 523.477C1012.38 523.477 1013.99 523.756 1015.48 524.312C1016.98 524.858 1018.29 525.682 1019.4 526.784C1020.53 527.886 1021.4 529.273 1022.03 530.943C1022.65 532.602 1022.96 534.545 1022.96 536.773V538.767H1000.86V534.267H1016.13C1016.13 533.222 1015.9 532.295 1015.45 531.489C1014.99 530.682 1014.36 530.051 1013.55 529.597C1012.76 529.131 1011.83 528.898 1010.78 528.898C1009.67 528.898 1008.7 529.153 1007.84 529.665C1007 530.165 1006.34 530.841 1005.87 531.693C1005.39 532.534 1005.15 533.472 1005.13 534.506V538.784C1005.13 540.08 1005.37 541.199 1005.85 542.142C1006.34 543.085 1007.03 543.812 1007.91 544.324C1008.8 544.835 1009.85 545.091 1011.07 545.091C1011.87 545.091 1012.61 544.977 1013.28 544.75C1013.95 544.523 1014.53 544.182 1015 543.727C1015.48 543.273 1015.84 542.716 1016.09 542.057L1022.81 542.5C1022.47 544.114 1021.77 545.523 1020.71 546.727C1019.67 547.92 1018.32 548.852 1016.66 549.523C1015.01 550.182 1013.11 550.511 1010.95 550.511ZM1027.7 550V523.818H1034.74V528.386H1035.01C1035.49 526.761 1036.29 525.534 1037.42 524.705C1038.54 523.864 1039.84 523.443 1041.3 523.443C1041.67 523.443 1042.06 523.466 1042.48 523.511C1042.9 523.557 1043.27 523.619 1043.59 523.699V530.142C1043.25 530.04 1042.78 529.949 1042.17 529.869C1041.57 529.79 1041.02 529.75 1040.52 529.75C1039.45 529.75 1038.5 529.983 1037.66 530.449C1036.83 530.903 1036.17 531.54 1035.68 532.358C1035.2 533.176 1034.96 534.119 1034.96 535.188V550H1027.7ZM1058.06 550.511C1055.36 550.511 1053.04 549.966 1051.1 548.875C1049.17 547.773 1047.68 546.216 1046.64 544.205C1045.59 542.182 1045.07 539.79 1045.07 537.028C1045.07 534.335 1045.59 531.972 1046.64 529.938C1047.68 527.903 1049.15 526.318 1051.05 525.182C1052.96 524.045 1055.2 523.477 1057.77 523.477C1059.49 523.477 1061.1 523.756 1062.59 524.312C1064.09 524.858 1065.4 525.682 1066.51 526.784C1067.64 527.886 1068.51 529.273 1069.14 530.943C1069.76 532.602 1070.07 534.545 1070.07 536.773V538.767H1047.97V534.267H1063.24C1063.24 533.222 1063.01 532.295 1062.56 531.489C1062.1 530.682 1061.47 530.051 1060.66 529.597C1059.87 529.131 1058.94 528.898 1057.89 528.898C1056.78 528.898 1055.81 529.153 1054.95 529.665C1054.11 530.165 1053.45 530.841 1052.98 531.693C1052.5 532.534 1052.25 533.472 1052.24 534.506V538.784C1052.24 540.08 1052.48 541.199 1052.96 542.142C1053.45 543.085 1054.14 543.812 1055.02 544.324C1055.91 544.835 1056.96 545.091 1058.18 545.091C1058.98 545.091 1059.72 544.977 1060.39 544.75C1061.06 544.523 1061.64 544.182 1062.11 543.727C1062.59 543.273 1062.95 542.716 1063.2 542.057L1069.92 542.5C1069.58 544.114 1068.88 545.523 1067.82 546.727C1066.78 547.92 1065.43 548.852 1063.77 549.523C1062.12 550.182 1060.22 550.511 1058.06 550.511ZM1096.6 531.284L1089.95 531.693C1089.83 531.125 1089.59 530.614 1089.22 530.159C1088.84 529.693 1088.35 529.324 1087.73 529.051C1087.13 528.767 1086.41 528.625 1085.57 528.625C1084.44 528.625 1083.49 528.864 1082.72 529.341C1081.95 529.807 1081.56 530.432 1081.56 531.216C1081.56 531.841 1081.81 532.369 1082.31 532.801C1082.81 533.233 1083.67 533.58 1084.89 533.841L1089.62 534.795C1092.17 535.318 1094.07 536.159 1095.32 537.318C1096.57 538.477 1097.19 540 1097.19 541.886C1097.19 543.602 1096.69 545.108 1095.68 546.403C1094.68 547.699 1093.3 548.71 1091.55 549.438C1089.81 550.153 1087.81 550.511 1085.53 550.511C1082.07 550.511 1079.31 549.79 1077.25 548.347C1075.2 546.892 1074 544.915 1073.65 542.415L1080.79 542.04C1081.01 543.097 1081.53 543.903 1082.36 544.46C1083.19 545.006 1084.25 545.278 1085.55 545.278C1086.82 545.278 1087.85 545.034 1088.62 544.545C1089.4 544.045 1089.8 543.403 1089.81 542.619C1089.8 541.96 1089.52 541.42 1088.98 541C1088.43 540.568 1087.59 540.239 1086.45 540.011L1081.92 539.108C1079.36 538.597 1077.46 537.71 1076.21 536.449C1074.97 535.187 1074.35 533.58 1074.35 531.625C1074.35 529.943 1074.81 528.494 1075.72 527.278C1076.64 526.062 1077.93 525.125 1079.58 524.466C1081.25 523.807 1083.21 523.477 1085.45 523.477C1088.75 523.477 1091.36 524.176 1093.25 525.574C1095.16 526.972 1096.28 528.875 1096.6 531.284ZM1115.69 523.818V529.273H1099.92V523.818H1115.69ZM1103.5 517.545H1110.76V541.955C1110.76 542.625 1110.87 543.148 1111.07 543.523C1111.28 543.886 1111.56 544.142 1111.92 544.29C1112.3 544.437 1112.73 544.511 1113.22 544.511C1113.56 544.511 1113.9 544.483 1114.24 544.426C1114.58 544.358 1114.84 544.307 1115.03 544.273L1116.17 549.676C1115.8 549.79 1115.29 549.92 1114.63 550.068C1113.98 550.227 1113.17 550.324 1112.23 550.358C1110.48 550.426 1108.95 550.193 1107.63 549.659C1106.32 549.125 1105.3 548.295 1104.58 547.17C1103.85 546.045 1103.49 544.625 1103.5 542.909V517.545ZM1132.07 550.511C1129.38 550.511 1127.06 549.966 1125.12 548.875C1123.19 547.773 1121.7 546.216 1120.65 544.205C1119.61 542.182 1119.08 539.79 1119.08 537.028C1119.08 534.335 1119.61 531.972 1120.65 529.938C1121.7 527.903 1123.17 526.318 1125.07 525.182C1126.98 524.045 1129.21 523.477 1131.78 523.477C1133.51 523.477 1135.12 523.756 1136.61 524.312C1138.11 524.858 1139.41 525.682 1140.53 526.784C1141.65 527.886 1142.53 529.273 1143.15 530.943C1143.78 532.602 1144.09 534.545 1144.09 536.773V538.767H1121.98V534.267H1137.25C1137.25 533.222 1137.03 532.295 1136.57 531.489C1136.12 530.682 1135.49 530.051 1134.68 529.597C1133.88 529.131 1132.96 528.898 1131.9 528.898C1130.8 528.898 1129.82 529.153 1128.97 529.665C1128.13 530.165 1127.47 530.841 1126.99 531.693C1126.51 532.534 1126.27 533.472 1126.26 534.506V538.784C1126.26 540.08 1126.5 541.199 1126.98 542.142C1127.46 543.085 1128.15 543.812 1129.04 544.324C1129.92 544.835 1130.98 545.091 1132.19 545.091C1133 545.091 1133.74 544.977 1134.41 544.75C1135.08 544.523 1135.65 544.182 1136.13 543.727C1136.61 543.273 1136.97 542.716 1137.22 542.057L1143.94 542.5C1143.59 544.114 1142.9 545.523 1141.84 546.727C1140.79 547.92 1139.44 548.852 1137.78 549.523C1136.13 550.182 1134.23 550.511 1132.07 550.511ZM1158.48 550.426C1156.49 550.426 1154.69 549.915 1153.07 548.892C1151.47 547.858 1150.2 546.341 1149.25 544.341C1148.32 542.33 1147.86 539.864 1147.86 536.943C1147.86 533.943 1148.34 531.449 1149.3 529.46C1150.27 527.46 1151.55 525.966 1153.16 524.977C1154.77 523.977 1156.54 523.477 1158.46 523.477C1159.92 523.477 1161.15 523.727 1162.12 524.227C1163.11 524.716 1163.91 525.33 1164.51 526.068C1165.12 526.795 1165.59 527.511 1165.91 528.216H1166.13V515.091H1173.37V550H1166.21V545.807H1165.91C1165.57 546.534 1165.08 547.256 1164.46 547.972C1163.84 548.676 1163.04 549.261 1162.05 549.727C1161.08 550.193 1159.88 550.426 1158.48 550.426ZM1160.78 544.648C1161.95 544.648 1162.94 544.33 1163.74 543.693C1164.56 543.045 1165.19 542.142 1165.62 540.983C1166.06 539.824 1166.28 538.466 1166.28 536.909C1166.28 535.352 1166.07 534 1165.63 532.852C1165.2 531.705 1164.58 530.818 1163.76 530.193C1162.94 529.568 1161.95 529.256 1160.78 529.256C1159.58 529.256 1158.58 529.58 1157.76 530.227C1156.94 530.875 1156.32 531.773 1155.9 532.92C1155.48 534.068 1155.27 535.398 1155.27 536.909C1155.27 538.432 1155.48 539.778 1155.9 540.949C1156.33 542.108 1156.95 543.017 1157.76 543.676C1158.58 544.324 1159.58 544.648 1160.78 544.648ZM1190.45 550V523.818H1197.71V550H1190.45ZM1194.1 520.443C1193.02 520.443 1192.09 520.085 1191.32 519.369C1190.56 518.642 1190.18 517.773 1190.18 516.761C1190.18 515.761 1190.56 514.903 1191.32 514.188C1192.09 513.46 1193.02 513.097 1194.1 513.097C1195.18 513.097 1196.1 513.46 1196.86 514.188C1197.63 514.903 1198.02 515.761 1198.02 516.761C1198.02 517.773 1197.63 518.642 1196.86 519.369C1196.1 520.085 1195.18 520.443 1194.1 520.443ZM1210.79 534.864V550H1203.53V523.818H1210.45V528.438H1210.76C1211.34 526.915 1212.31 525.71 1213.67 524.824C1215.04 523.926 1216.69 523.477 1218.63 523.477C1220.45 523.477 1222.04 523.875 1223.39 524.67C1224.74 525.466 1225.79 526.602 1226.54 528.08C1227.29 529.545 1227.67 531.295 1227.67 533.33V550H1220.41V534.625C1220.42 533.023 1220.01 531.773 1219.18 530.875C1218.35 529.966 1217.21 529.511 1215.75 529.511C1214.77 529.511 1213.91 529.722 1213.16 530.142C1212.42 530.562 1211.84 531.176 1211.42 531.983C1211.01 532.778 1210.8 533.739 1210.79 534.864ZM1244.5 550V523.818H1251.42V528.438H1251.73C1252.27 526.903 1253.18 525.693 1254.45 524.807C1255.73 523.92 1257.25 523.477 1259.02 523.477C1260.82 523.477 1262.35 523.926 1263.61 524.824C1264.87 525.71 1265.71 526.915 1266.13 528.438H1266.4C1266.94 526.938 1267.9 525.739 1269.3 524.841C1270.71 523.932 1272.37 523.477 1274.29 523.477C1276.74 523.477 1278.72 524.256 1280.24 525.812C1281.78 527.358 1282.54 529.551 1282.54 532.392V550H1275.3V533.824C1275.3 532.369 1274.91 531.278 1274.14 530.551C1273.37 529.824 1272.4 529.46 1271.24 529.46C1269.93 529.46 1268.9 529.881 1268.16 530.722C1267.42 531.551 1267.05 532.648 1267.05 534.011V550H1260.01V533.67C1260.01 532.386 1259.64 531.364 1258.9 530.602C1258.18 529.841 1257.22 529.46 1256.02 529.46C1255.22 529.46 1254.49 529.665 1253.84 530.074C1253.2 530.472 1252.7 531.034 1252.32 531.761C1251.95 532.477 1251.76 533.318 1251.76 534.284V550H1244.5ZM1291.83 559.818C1290.91 559.818 1290.04 559.744 1289.24 559.597C1288.44 559.46 1287.78 559.284 1287.26 559.068L1288.89 553.648C1289.75 553.909 1290.51 554.051 1291.2 554.074C1291.89 554.097 1292.49 553.938 1292.99 553.597C1293.5 553.256 1293.91 552.676 1294.23 551.858L1294.66 550.75L1285.26 523.818H1292.9L1298.32 543.045H1298.59L1304.06 523.818H1311.75L1301.58 552.83C1301.09 554.239 1300.42 555.466 1299.58 556.511C1298.75 557.568 1297.7 558.381 1296.43 558.949C1295.16 559.528 1293.62 559.818 1291.83 559.818ZM1331.74 550L1324.62 523.818H1331.96L1336.02 541.409H1336.26L1340.49 523.818H1347.7L1351.99 541.307H1352.21L1356.2 523.818H1363.53L1356.42 550H1348.74L1344.24 533.534H1343.91L1339.41 550H1331.74ZM1378.58 550.511C1375.93 550.511 1373.64 549.949 1371.71 548.824C1369.79 547.687 1368.31 546.108 1367.26 544.085C1366.22 542.051 1365.69 539.693 1365.69 537.011C1365.69 534.307 1366.22 531.943 1367.26 529.92C1368.31 527.886 1369.79 526.307 1371.71 525.182C1373.64 524.045 1375.93 523.477 1378.58 523.477C1381.23 523.477 1383.51 524.045 1385.43 525.182C1387.36 526.307 1388.85 527.886 1389.9 529.92C1390.94 531.943 1391.47 534.307 1391.47 537.011C1391.47 539.693 1390.94 542.051 1389.9 544.085C1388.85 546.108 1387.36 547.687 1385.43 548.824C1383.51 549.949 1381.23 550.511 1378.58 550.511ZM1378.61 544.886C1379.82 544.886 1380.82 544.545 1381.63 543.864C1382.44 543.17 1383.04 542.227 1383.45 541.034C1383.87 539.841 1384.08 538.483 1384.08 536.96C1384.08 535.438 1383.87 534.08 1383.45 532.886C1383.04 531.693 1382.44 530.75 1381.63 530.057C1380.82 529.364 1379.82 529.017 1378.61 529.017C1377.4 529.017 1376.37 529.364 1375.54 530.057C1374.73 530.75 1374.11 531.693 1373.69 532.886C1373.28 534.08 1373.07 535.438 1373.07 536.96C1373.07 538.483 1373.28 539.841 1373.69 541.034C1374.11 542.227 1374.73 543.17 1375.54 543.864C1376.37 544.545 1377.4 544.886 1378.61 544.886ZM1396.19 550V523.818H1403.23V528.386H1403.5C1403.98 526.761 1404.78 525.534 1405.9 524.705C1407.03 523.864 1408.32 523.443 1409.79 523.443C1410.15 523.443 1410.54 523.466 1410.97 523.511C1411.39 523.557 1411.75 523.619 1412.07 523.699V530.142C1411.73 530.04 1411.26 529.949 1410.66 529.869C1410.06 529.79 1409.5 529.75 1409 529.75C1407.94 529.75 1406.98 529.983 1406.14 530.449C1405.31 530.903 1404.65 531.54 1404.16 532.358C1403.69 533.176 1403.45 534.119 1403.45 535.188V550H1396.19ZM1422.41 542.466L1422.42 533.756H1423.48L1431.87 523.818H1440.2L1428.94 536.977H1427.21L1422.41 542.466ZM1415.83 550V515.091H1423.09V550H1415.83ZM1432.19 550L1424.49 538.597L1429.33 533.466L1440.7 550H1432.19ZM1460.04 550L1452.91 523.818H1460.26L1464.32 541.409H1464.56L1468.78 523.818H1475.99L1480.29 541.307H1480.51L1484.5 523.818H1491.83L1484.72 550H1477.03L1472.53 533.534H1472.21L1467.71 550H1460.04ZM1495.7 550V523.818H1502.96V550H1495.7ZM1499.35 520.443C1498.27 520.443 1497.34 520.085 1496.57 519.369C1495.81 518.642 1495.43 517.773 1495.43 516.761C1495.43 515.761 1495.81 514.903 1496.57 514.188C1497.34 513.46 1498.27 513.097 1499.35 513.097C1500.43 513.097 1501.35 513.46 1502.11 514.188C1502.88 514.903 1503.27 515.761 1503.27 516.761C1503.27 517.773 1502.88 518.642 1502.11 519.369C1501.35 520.085 1500.43 520.443 1499.35 520.443ZM1522.71 523.818V529.273H1506.94V523.818H1522.71ZM1510.52 517.545H1517.78V541.955C1517.78 542.625 1517.88 543.148 1518.09 543.523C1518.29 543.886 1518.58 544.142 1518.94 544.29C1519.31 544.437 1519.75 544.511 1520.24 544.511C1520.58 544.511 1520.92 544.483 1521.26 544.426C1521.6 544.358 1521.86 544.307 1522.04 544.273L1523.18 549.676C1522.82 549.79 1522.31 549.92 1521.65 550.068C1520.99 550.227 1520.19 550.324 1519.25 550.358C1517.5 550.426 1515.96 550.193 1514.64 549.659C1513.34 549.125 1512.32 548.295 1511.59 547.17C1510.87 546.045 1510.51 544.625 1510.52 542.909V517.545ZM1535.26 534.864V550H1528V515.091H1535.06V528.438H1535.36C1535.95 526.892 1536.91 525.682 1538.23 524.807C1539.54 523.92 1541.2 523.477 1543.19 523.477C1545 523.477 1546.59 523.875 1547.94 524.67C1549.31 525.455 1550.36 526.585 1551.11 528.062C1551.87 529.528 1552.25 531.284 1552.24 533.33V550H1544.98V534.625C1544.99 533.011 1544.58 531.756 1543.75 530.858C1542.93 529.96 1541.78 529.511 1540.31 529.511C1539.32 529.511 1538.44 529.722 1537.68 530.142C1536.93 530.562 1536.34 531.176 1535.91 531.983C1535.49 532.778 1535.27 533.739 1535.26 534.864ZM622.683 581.818V587.273H606.916V581.818H622.683ZM610.496 575.545H617.757V599.955C617.757 600.625 617.859 601.148 618.064 601.523C618.268 601.886 618.553 602.142 618.916 602.29C619.291 602.437 619.723 602.511 620.212 602.511C620.553 602.511 620.893 602.483 621.234 602.426C621.575 602.358 621.837 602.307 622.018 602.273L623.161 607.676C622.797 607.79 622.286 607.92 621.626 608.068C620.967 608.227 620.166 608.324 619.223 608.358C617.473 608.426 615.939 608.193 614.621 607.659C613.314 607.125 612.297 606.295 611.57 605.17C610.842 604.045 610.484 602.625 610.496 600.909V575.545ZM635.237 592.864V608H627.976V573.091H635.033V586.438H635.339C635.93 584.892 636.885 583.682 638.203 582.807C639.521 581.92 641.175 581.477 643.163 581.477C644.982 581.477 646.567 581.875 647.919 582.67C649.283 583.455 650.339 584.585 651.089 586.062C651.851 587.528 652.226 589.284 652.214 591.33V608H644.953V592.625C644.964 591.011 644.555 589.756 643.726 588.858C642.908 587.96 641.76 587.511 640.283 587.511C639.294 587.511 638.419 587.722 637.658 588.142C636.908 588.562 636.317 589.176 635.885 589.983C635.464 590.778 635.249 591.739 635.237 592.864ZM669.861 608.511C667.168 608.511 664.849 607.966 662.906 606.875C660.974 605.773 659.486 604.216 658.44 602.205C657.395 600.182 656.872 597.79 656.872 595.028C656.872 592.335 657.395 589.972 658.44 587.938C659.486 585.903 660.957 584.318 662.855 583.182C664.764 582.045 667.003 581.477 669.571 581.477C671.298 581.477 672.906 581.756 674.395 582.312C675.895 582.858 677.202 583.682 678.315 584.784C679.44 585.886 680.315 587.273 680.94 588.943C681.565 590.602 681.878 592.545 681.878 594.773V596.767H659.77V592.267H675.043C675.043 591.222 674.815 590.295 674.361 589.489C673.906 588.682 673.276 588.051 672.469 587.597C671.673 587.131 670.747 586.898 669.69 586.898C668.588 586.898 667.611 587.153 666.759 587.665C665.918 588.165 665.259 588.841 664.781 589.693C664.304 590.534 664.06 591.472 664.048 592.506V596.784C664.048 598.08 664.287 599.199 664.764 600.142C665.253 601.085 665.94 601.812 666.827 602.324C667.713 602.835 668.764 603.091 669.98 603.091C670.787 603.091 671.526 602.977 672.196 602.75C672.866 602.523 673.44 602.182 673.918 601.727C674.395 601.273 674.759 600.716 675.009 600.057L681.724 600.5C681.384 602.114 680.685 603.523 679.628 604.727C678.582 605.92 677.23 606.852 675.571 607.523C673.923 608.182 672.02 608.511 669.861 608.511ZM708.401 589.284L701.753 589.693C701.639 589.125 701.395 588.614 701.02 588.159C700.645 587.693 700.151 587.324 699.537 587.051C698.935 586.767 698.213 586.625 697.372 586.625C696.247 586.625 695.298 586.864 694.526 587.341C693.753 587.807 693.366 588.432 693.366 589.216C693.366 589.841 693.616 590.369 694.116 590.801C694.616 591.233 695.474 591.58 696.69 591.841L701.429 592.795C703.974 593.318 705.872 594.159 707.122 595.318C708.372 596.477 708.997 598 708.997 599.886C708.997 601.602 708.491 603.108 707.48 604.403C706.48 605.699 705.105 606.71 703.355 607.438C701.616 608.153 699.611 608.511 697.338 608.511C693.872 608.511 691.111 607.79 689.054 606.347C687.009 604.892 685.81 602.915 685.457 600.415L692.599 600.04C692.815 601.097 693.338 601.903 694.168 602.46C694.997 603.006 696.06 603.278 697.355 603.278C698.628 603.278 699.651 603.034 700.423 602.545C701.207 602.045 701.605 601.403 701.616 600.619C701.605 599.96 701.327 599.42 700.781 599C700.236 598.568 699.395 598.239 698.259 598.011L693.724 597.108C691.168 596.597 689.264 595.71 688.014 594.449C686.776 593.187 686.156 591.58 686.156 589.625C686.156 587.943 686.611 586.494 687.52 585.278C688.44 584.062 689.73 583.125 691.389 582.466C693.06 581.807 695.014 581.477 697.253 581.477C700.56 581.477 703.162 582.176 705.06 583.574C706.969 584.972 708.082 586.875 708.401 589.284ZM725.501 608.511C722.808 608.511 720.49 607.966 718.547 606.875C716.615 605.773 715.126 604.216 714.081 602.205C713.036 600.182 712.513 597.79 712.513 595.028C712.513 592.335 713.036 589.972 714.081 587.938C715.126 585.903 716.598 584.318 718.496 583.182C720.405 582.045 722.643 581.477 725.212 581.477C726.939 581.477 728.547 581.756 730.036 582.312C731.536 582.858 732.842 583.682 733.956 584.784C735.081 585.886 735.956 587.273 736.581 588.943C737.206 590.602 737.518 592.545 737.518 594.773V596.767H715.411V592.267H730.683C730.683 591.222 730.456 590.295 730.001 589.489C729.547 588.682 728.916 588.051 728.109 587.597C727.314 587.131 726.388 586.898 725.331 586.898C724.229 586.898 723.251 587.153 722.399 587.665C721.558 588.165 720.899 588.841 720.422 589.693C719.945 590.534 719.7 591.472 719.689 592.506V596.784C719.689 598.08 719.928 599.199 720.405 600.142C720.893 601.085 721.581 601.812 722.467 602.324C723.354 602.835 724.405 603.091 725.621 603.091C726.428 603.091 727.166 602.977 727.837 602.75C728.507 602.523 729.081 602.182 729.558 601.727C730.036 601.273 730.399 600.716 730.649 600.057L737.365 600.5C737.024 602.114 736.325 603.523 735.268 604.727C734.223 605.92 732.871 606.852 731.212 607.523C729.564 608.182 727.661 608.511 725.501 608.511ZM775.151 589.284L768.503 589.693C768.389 589.125 768.145 588.614 767.77 588.159C767.395 587.693 766.901 587.324 766.287 587.051C765.685 586.767 764.963 586.625 764.122 586.625C762.997 586.625 762.048 586.864 761.276 587.341C760.503 587.807 760.116 588.432 760.116 589.216C760.116 589.841 760.366 590.369 760.866 590.801C761.366 591.233 762.224 591.58 763.44 591.841L768.179 592.795C770.724 593.318 772.622 594.159 773.872 595.318C775.122 596.477 775.747 598 775.747 599.886C775.747 601.602 775.241 603.108 774.23 604.403C773.23 605.699 771.855 606.71 770.105 607.438C768.366 608.153 766.361 608.511 764.088 608.511C760.622 608.511 757.861 607.79 755.804 606.347C753.759 604.892 752.56 602.915 752.207 600.415L759.349 600.04C759.565 601.097 760.088 601.903 760.918 602.46C761.747 603.006 762.81 603.278 764.105 603.278C765.378 603.278 766.401 603.034 767.173 602.545C767.957 602.045 768.355 601.403 768.366 600.619C768.355 599.96 768.077 599.42 767.531 599C766.986 598.568 766.145 598.239 765.009 598.011L760.474 597.108C757.918 596.597 756.014 595.71 754.764 594.449C753.526 593.187 752.906 591.58 752.906 589.625C752.906 587.943 753.361 586.494 754.27 585.278C755.19 584.062 756.48 583.125 758.139 582.466C759.81 581.807 761.764 581.477 764.003 581.477C767.31 581.477 769.912 582.176 771.81 583.574C773.719 584.972 774.832 586.875 775.151 589.284ZM792.149 608.511C789.501 608.511 787.212 607.949 785.28 606.824C783.359 605.687 781.876 604.108 780.831 602.085C779.786 600.051 779.263 597.693 779.263 595.011C779.263 592.307 779.786 589.943 780.831 587.92C781.876 585.886 783.359 584.307 785.28 583.182C787.212 582.045 789.501 581.477 792.149 581.477C794.797 581.477 797.081 582.045 799.001 583.182C800.933 584.307 802.422 585.886 803.467 587.92C804.513 589.943 805.036 592.307 805.036 595.011C805.036 597.693 804.513 600.051 803.467 602.085C802.422 604.108 800.933 605.687 799.001 606.824C797.081 607.949 794.797 608.511 792.149 608.511ZM792.183 602.886C793.388 602.886 794.393 602.545 795.2 601.864C796.007 601.17 796.615 600.227 797.024 599.034C797.445 597.841 797.655 596.483 797.655 594.96C797.655 593.438 797.445 592.08 797.024 590.886C796.615 589.693 796.007 588.75 795.2 588.057C794.393 587.364 793.388 587.017 792.183 587.017C790.967 587.017 789.945 587.364 789.115 588.057C788.297 588.75 787.678 589.693 787.257 590.886C786.848 592.08 786.643 593.438 786.643 594.96C786.643 596.483 786.848 597.841 787.257 599.034C787.678 600.227 788.297 601.17 789.115 601.864C789.945 602.545 790.967 602.886 792.183 602.886ZM821.587 608.511C818.905 608.511 816.598 607.943 814.666 606.807C812.746 605.659 811.268 604.068 810.234 602.034C809.212 600 808.7 597.659 808.7 595.011C808.7 592.33 809.217 589.977 810.251 587.955C811.297 585.92 812.78 584.335 814.7 583.199C816.621 582.051 818.905 581.477 821.553 581.477C823.837 581.477 825.837 581.892 827.553 582.722C829.268 583.551 830.626 584.716 831.626 586.216C832.626 587.716 833.178 589.477 833.28 591.5H826.428C826.234 590.193 825.723 589.142 824.893 588.347C824.075 587.54 823.001 587.136 821.672 587.136C820.547 587.136 819.564 587.443 818.723 588.057C817.893 588.659 817.246 589.54 816.78 590.699C816.314 591.858 816.081 593.261 816.081 594.909C816.081 596.58 816.308 598 816.763 599.17C817.229 600.341 817.882 601.233 818.723 601.847C819.564 602.46 820.547 602.767 821.672 602.767C822.501 602.767 823.246 602.597 823.905 602.256C824.575 601.915 825.126 601.42 825.558 600.773C826.001 600.114 826.291 599.324 826.428 598.403H833.28C833.166 600.403 832.621 602.165 831.643 603.688C830.678 605.199 829.342 606.381 827.638 607.233C825.933 608.085 823.916 608.511 821.587 608.511ZM837.929 608V581.818H845.19V608H837.929ZM841.577 578.443C840.497 578.443 839.571 578.085 838.798 577.369C838.037 576.642 837.656 575.773 837.656 574.761C837.656 573.761 838.037 572.903 838.798 572.188C839.571 571.46 840.497 571.097 841.577 571.097C842.656 571.097 843.577 571.46 844.338 572.188C845.111 572.903 845.497 573.761 845.497 574.761C845.497 575.773 845.111 576.642 844.338 577.369C843.577 578.085 842.656 578.443 841.577 578.443ZM858.473 608.494C856.803 608.494 855.314 608.205 854.007 607.625C852.7 607.034 851.666 606.165 850.905 605.017C850.155 603.858 849.78 602.415 849.78 600.688C849.78 599.233 850.047 598.011 850.581 597.023C851.115 596.034 851.842 595.239 852.763 594.636C853.683 594.034 854.729 593.58 855.899 593.273C857.081 592.966 858.32 592.75 859.615 592.625C861.138 592.466 862.365 592.318 863.297 592.182C864.229 592.034 864.905 591.818 865.325 591.534C865.746 591.25 865.956 590.83 865.956 590.273V590.17C865.956 589.091 865.615 588.256 864.933 587.665C864.263 587.074 863.308 586.778 862.07 586.778C860.763 586.778 859.723 587.068 858.95 587.648C858.178 588.216 857.666 588.932 857.416 589.795L850.7 589.25C851.041 587.659 851.712 586.284 852.712 585.125C853.712 583.955 855.001 583.057 856.581 582.432C858.172 581.795 860.013 581.477 862.104 581.477C863.558 581.477 864.95 581.648 866.28 581.989C867.621 582.33 868.808 582.858 869.842 583.574C870.888 584.29 871.712 585.21 872.314 586.335C872.916 587.449 873.217 588.784 873.217 590.341V608H866.331V604.369H866.126C865.706 605.188 865.143 605.909 864.439 606.534C863.734 607.148 862.888 607.631 861.899 607.983C860.911 608.324 859.768 608.494 858.473 608.494ZM860.553 603.483C861.621 603.483 862.564 603.273 863.382 602.852C864.2 602.42 864.842 601.841 865.308 601.114C865.774 600.386 866.007 599.562 866.007 598.642V595.864C865.78 596.011 865.467 596.148 865.07 596.273C864.683 596.386 864.246 596.494 863.757 596.597C863.268 596.687 862.78 596.773 862.291 596.852C861.803 596.92 861.359 596.983 860.962 597.04C860.109 597.165 859.365 597.364 858.729 597.636C858.092 597.909 857.598 598.278 857.246 598.744C856.893 599.199 856.717 599.767 856.717 600.449C856.717 601.438 857.075 602.193 857.791 602.716C858.518 603.227 859.439 603.483 860.553 603.483ZM886.112 573.091V608H878.851V573.091H886.112ZM910.3 592.864V608H903.038V581.818H909.959V586.438H910.266C910.845 584.915 911.817 583.71 913.18 582.824C914.544 581.926 916.197 581.477 918.141 581.477C919.959 581.477 921.544 581.875 922.896 582.67C924.249 583.466 925.3 584.602 926.05 586.08C926.8 587.545 927.175 589.295 927.175 591.33V608H919.913V592.625C919.925 591.023 919.516 589.773 918.686 588.875C917.857 587.966 916.714 587.511 915.26 587.511C914.283 587.511 913.419 587.722 912.669 588.142C911.93 588.562 911.351 589.176 910.93 589.983C910.521 590.778 910.311 591.739 910.3 592.864ZM944.83 608.511C942.136 608.511 939.818 607.966 937.875 606.875C935.943 605.773 934.455 604.216 933.409 602.205C932.364 600.182 931.841 597.79 931.841 595.028C931.841 592.335 932.364 589.972 933.409 587.938C934.455 585.903 935.926 584.318 937.824 583.182C939.733 582.045 941.972 581.477 944.54 581.477C946.267 581.477 947.875 581.756 949.364 582.312C950.864 582.858 952.17 583.682 953.284 584.784C954.409 585.886 955.284 587.273 955.909 588.943C956.534 590.602 956.847 592.545 956.847 594.773V596.767H934.739V592.267H950.011C950.011 591.222 949.784 590.295 949.33 589.489C948.875 588.682 948.244 588.051 947.438 587.597C946.642 587.131 945.716 586.898 944.659 586.898C943.557 586.898 942.58 587.153 941.727 587.665C940.886 588.165 940.227 588.841 939.75 589.693C939.273 590.534 939.028 591.472 939.017 592.506V596.784C939.017 598.08 939.256 599.199 939.733 600.142C940.222 601.085 940.909 601.812 941.795 602.324C942.682 602.835 943.733 603.091 944.949 603.091C945.756 603.091 946.494 602.977 947.165 602.75C947.835 602.523 948.409 602.182 948.886 601.727C949.364 601.273 949.727 600.716 949.977 600.057L956.693 600.5C956.352 602.114 955.653 603.523 954.597 604.727C953.551 605.92 952.199 606.852 950.54 607.523C948.892 608.182 946.989 608.511 944.83 608.511ZM975.511 581.818V587.273H959.744V581.818H975.511ZM963.324 575.545H970.585V599.955C970.585 600.625 970.688 601.148 970.892 601.523C971.097 601.886 971.381 602.142 971.744 602.29C972.119 602.437 972.551 602.511 973.04 602.511C973.381 602.511 973.722 602.483 974.062 602.426C974.403 602.358 974.665 602.307 974.847 602.273L975.989 607.676C975.625 607.79 975.114 607.92 974.455 608.068C973.795 608.227 972.994 608.324 972.051 608.358C970.301 608.426 968.767 608.193 967.449 607.659C966.142 607.125 965.125 606.295 964.398 605.17C963.67 604.045 963.313 602.625 963.324 600.909V575.545ZM985.406 608L978.281 581.818H985.628L989.685 599.409H989.923L994.151 581.818H1001.36L1005.66 599.307H1005.88L1009.87 581.818H1017.2L1010.09 608H1002.4L997.901 591.534H997.577L993.077 608H985.406ZM1032.24 608.511C1029.6 608.511 1027.31 607.949 1025.37 606.824C1023.45 605.687 1021.97 604.108 1020.92 602.085C1019.88 600.051 1019.36 597.693 1019.36 595.011C1019.36 592.307 1019.88 589.943 1020.92 587.92C1021.97 585.886 1023.45 584.307 1025.37 583.182C1027.31 582.045 1029.6 581.477 1032.24 581.477C1034.89 581.477 1037.17 582.045 1039.1 583.182C1041.03 584.307 1042.52 585.886 1043.56 587.92C1044.61 589.943 1045.13 592.307 1045.13 595.011C1045.13 597.693 1044.61 600.051 1043.56 602.085C1042.52 604.108 1041.03 605.687 1039.1 606.824C1037.17 607.949 1034.89 608.511 1032.24 608.511ZM1032.28 602.886C1033.48 602.886 1034.49 602.545 1035.29 601.864C1036.1 601.17 1036.71 600.227 1037.12 599.034C1037.54 597.841 1037.75 596.483 1037.75 594.96C1037.75 593.438 1037.54 592.08 1037.12 590.886C1036.71 589.693 1036.1 588.75 1035.29 588.057C1034.49 587.364 1033.48 587.017 1032.28 587.017C1031.06 587.017 1030.04 587.364 1029.21 588.057C1028.39 588.75 1027.77 589.693 1027.35 590.886C1026.94 592.08 1026.74 593.438 1026.74 594.96C1026.74 596.483 1026.94 597.841 1027.35 599.034C1027.77 600.227 1028.39 601.17 1029.21 601.864C1030.04 602.545 1031.06 602.886 1032.28 602.886ZM1049.85 608V581.818H1056.89V586.386H1057.16C1057.64 584.761 1058.44 583.534 1059.57 582.705C1060.69 581.864 1061.99 581.443 1063.45 581.443C1063.82 581.443 1064.21 581.466 1064.63 581.511C1065.05 581.557 1065.42 581.619 1065.74 581.699V588.142C1065.4 588.04 1064.92 587.949 1064.32 587.869C1063.72 587.79 1063.17 587.75 1062.67 587.75C1061.6 587.75 1060.65 587.983 1059.81 588.449C1058.98 588.903 1058.32 589.54 1057.83 590.358C1057.35 591.176 1057.11 592.119 1057.11 593.188V608H1049.85ZM1076.07 600.466L1076.09 591.756H1077.14L1085.53 581.818H1093.87L1082.6 594.977H1080.88L1076.07 600.466ZM1069.49 608V573.091H1076.75V608H1069.49ZM1085.86 608L1078.15 596.597L1082.99 591.466L1094.36 608H1085.86ZM1119.21 589.284L1112.57 589.693C1112.45 589.125 1112.21 588.614 1111.83 588.159C1111.46 587.693 1110.96 587.324 1110.35 587.051C1109.75 586.767 1109.03 586.625 1108.18 586.625C1107.06 586.625 1106.11 586.864 1105.34 587.341C1104.57 587.807 1104.18 588.432 1104.18 589.216C1104.18 589.841 1104.43 590.369 1104.93 590.801C1105.43 591.233 1106.29 591.58 1107.5 591.841L1112.24 592.795C1114.79 593.318 1116.68 594.159 1117.93 595.318C1119.18 596.477 1119.81 598 1119.81 599.886C1119.81 601.602 1119.3 603.108 1118.29 604.403C1117.29 605.699 1115.92 606.71 1114.17 607.438C1112.43 608.153 1110.42 608.511 1108.15 608.511C1104.68 608.511 1101.92 607.79 1099.87 606.347C1097.82 604.892 1096.62 602.915 1096.27 600.415L1103.41 600.04C1103.63 601.097 1104.15 601.903 1104.98 602.46C1105.81 603.006 1106.87 603.278 1108.17 603.278C1109.44 603.278 1110.46 603.034 1111.24 602.545C1112.02 602.045 1112.42 601.403 1112.43 600.619C1112.42 599.96 1112.14 599.42 1111.59 599C1111.05 598.568 1110.21 598.239 1109.07 598.011L1104.54 597.108C1101.98 596.597 1100.08 595.71 1098.83 594.449C1097.59 593.187 1096.97 591.58 1096.97 589.625C1096.97 587.943 1097.42 586.494 1098.33 585.278C1099.25 584.062 1100.54 583.125 1102.2 582.466C1103.87 581.807 1105.83 581.477 1108.07 581.477C1111.37 581.477 1113.97 582.176 1115.87 583.574C1117.78 584.972 1118.89 586.875 1119.21 589.284ZM1135.49 581.818H1142.75V609.295C1142.75 611.318 1142.36 612.955 1141.56 614.205C1140.76 615.455 1139.62 616.369 1138.13 616.949C1136.66 617.528 1134.89 617.818 1132.83 617.818C1132.58 617.818 1132.34 617.813 1132.12 617.801C1131.88 617.801 1131.63 617.795 1131.37 617.784V612.108C1131.56 612.119 1131.73 612.125 1131.88 612.125C1132.01 612.136 1132.16 612.142 1132.32 612.142C1133.49 612.142 1134.31 611.892 1134.78 611.392C1135.25 610.903 1135.49 610.165 1135.49 609.176V581.818ZM1139.11 578.443C1138.04 578.443 1137.12 578.085 1136.34 577.369C1135.57 576.642 1135.18 575.773 1135.18 574.761C1135.18 573.761 1135.57 572.903 1136.34 572.188C1137.12 571.46 1138.04 571.097 1139.11 571.097C1140.2 571.097 1141.12 571.46 1141.88 572.188C1142.66 572.903 1143.04 573.761 1143.04 574.761C1143.04 575.773 1142.66 576.642 1141.88 577.369C1141.12 578.085 1140.2 578.443 1139.11 578.443ZM1165.36 596.852V581.818H1172.62V608H1165.65V603.244H1165.38C1164.79 604.778 1163.8 606.011 1162.43 606.943C1161.06 607.875 1159.4 608.341 1157.43 608.341C1155.68 608.341 1154.14 607.943 1152.81 607.148C1151.48 606.352 1150.44 605.222 1149.69 603.756C1148.96 602.29 1148.58 600.534 1148.57 598.489V581.818H1155.83V597.193C1155.84 598.739 1156.26 599.96 1157.08 600.858C1157.89 601.756 1158.99 602.205 1160.37 602.205C1161.24 602.205 1162.06 602.006 1162.82 601.608C1163.58 601.199 1164.19 600.597 1164.66 599.801C1165.14 599.006 1165.37 598.023 1165.36 596.852ZM1200.21 589.284L1193.57 589.693C1193.45 589.125 1193.21 588.614 1192.83 588.159C1192.46 587.693 1191.96 587.324 1191.35 587.051C1190.75 586.767 1190.03 586.625 1189.18 586.625C1188.06 586.625 1187.11 586.864 1186.34 587.341C1185.57 587.807 1185.18 588.432 1185.18 589.216C1185.18 589.841 1185.43 590.369 1185.93 590.801C1186.43 591.233 1187.29 591.58 1188.5 591.841L1193.24 592.795C1195.79 593.318 1197.68 594.159 1198.93 595.318C1200.18 596.477 1200.81 598 1200.81 599.886C1200.81 601.602 1200.3 603.108 1199.29 604.403C1198.29 605.699 1196.92 606.71 1195.17 607.438C1193.43 608.153 1191.42 608.511 1189.15 608.511C1185.68 608.511 1182.92 607.79 1180.87 606.347C1178.82 604.892 1177.62 602.915 1177.27 600.415L1184.41 600.04C1184.63 601.097 1185.15 601.903 1185.98 602.46C1186.81 603.006 1187.87 603.278 1189.17 603.278C1190.44 603.278 1191.46 603.034 1192.24 602.545C1193.02 602.045 1193.42 601.403 1193.43 600.619C1193.42 599.96 1193.14 599.42 1192.59 599C1192.05 598.568 1191.21 598.239 1190.07 598.011L1185.54 597.108C1182.98 596.597 1181.08 595.71 1179.83 594.449C1178.59 593.187 1177.97 591.58 1177.97 589.625C1177.97 587.943 1178.42 586.494 1179.33 585.278C1180.25 584.062 1181.54 583.125 1183.2 582.466C1184.87 581.807 1186.83 581.477 1189.07 581.477C1192.37 581.477 1194.97 582.176 1196.87 583.574C1198.78 584.972 1199.89 586.875 1200.21 589.284ZM1219.31 581.818V587.273H1203.54V581.818H1219.31ZM1207.12 575.545H1214.38V599.955C1214.38 600.625 1214.48 601.148 1214.69 601.523C1214.89 601.886 1215.18 602.142 1215.54 602.29C1215.92 602.437 1216.35 602.511 1216.84 602.511C1217.18 602.511 1217.52 602.483 1217.86 602.426C1218.2 602.358 1218.46 602.307 1218.64 602.273L1219.79 607.676C1219.42 607.79 1218.91 607.92 1218.25 608.068C1217.59 608.227 1216.79 608.324 1215.85 608.358C1214.1 608.426 1212.56 608.193 1211.25 607.659C1209.94 607.125 1208.92 606.295 1208.19 605.17C1207.47 604.045 1207.11 602.625 1207.12 600.909V575.545ZM1235.28 608V573.091H1242.55V586.216H1242.77C1243.09 585.511 1243.55 584.795 1244.15 584.068C1244.76 583.33 1245.56 582.716 1246.53 582.227C1247.52 581.727 1248.75 581.477 1250.22 581.477C1252.13 581.477 1253.89 581.977 1255.5 582.977C1257.11 583.966 1258.4 585.46 1259.37 587.46C1260.34 589.449 1260.82 591.943 1260.82 594.943C1260.82 597.864 1260.35 600.33 1259.4 602.341C1258.47 604.341 1257.2 605.858 1255.59 606.892C1253.98 607.915 1252.19 608.426 1250.2 608.426C1248.79 608.426 1247.59 608.193 1246.6 607.727C1245.62 607.261 1244.82 606.676 1244.2 605.972C1243.57 605.256 1243.1 604.534 1242.77 603.807H1242.44V608H1235.28ZM1242.39 594.909C1242.39 596.466 1242.61 597.824 1243.04 598.983C1243.47 600.142 1244.1 601.045 1244.91 601.693C1245.73 602.33 1246.73 602.648 1247.9 602.648C1249.08 602.648 1250.08 602.324 1250.9 601.676C1251.72 601.017 1252.34 600.108 1252.76 598.949C1253.19 597.778 1253.4 596.432 1253.4 594.909C1253.4 593.398 1253.19 592.068 1252.77 590.92C1252.35 589.773 1251.73 588.875 1250.91 588.227C1250.1 587.58 1249.09 587.256 1247.9 587.256C1246.72 587.256 1245.72 587.568 1244.9 588.193C1244.09 588.818 1243.47 589.705 1243.04 590.852C1242.61 592 1242.39 593.352 1242.39 594.909ZM1277.6 608.511C1274.9 608.511 1272.58 607.966 1270.64 606.875C1268.71 605.773 1267.22 604.216 1266.17 602.205C1265.13 600.182 1264.61 597.79 1264.61 595.028C1264.61 592.335 1265.13 589.972 1266.17 587.938C1267.22 585.903 1268.69 584.318 1270.59 583.182C1272.5 582.045 1274.74 581.477 1277.31 581.477C1279.03 581.477 1280.64 581.756 1282.13 582.312C1283.63 582.858 1284.94 583.682 1286.05 584.784C1287.17 585.886 1288.05 587.273 1288.67 588.943C1289.3 590.602 1289.61 592.545 1289.61 594.773V596.767H1267.5V592.267H1282.78C1282.78 591.222 1282.55 590.295 1282.1 589.489C1281.64 588.682 1281.01 588.051 1280.2 587.597C1279.41 587.131 1278.48 586.898 1277.42 586.898C1276.32 586.898 1275.35 587.153 1274.49 587.665C1273.65 588.165 1272.99 588.841 1272.52 589.693C1272.04 590.534 1271.79 591.472 1271.78 592.506V596.784C1271.78 598.08 1272.02 599.199 1272.5 600.142C1272.99 601.085 1273.67 601.812 1274.56 602.324C1275.45 602.835 1276.5 603.091 1277.71 603.091C1278.52 603.091 1279.26 602.977 1279.93 602.75C1280.6 602.523 1281.17 602.182 1281.65 601.727C1282.13 601.273 1282.49 600.716 1282.74 600.057L1289.46 600.5C1289.12 602.114 1288.42 603.523 1287.36 604.727C1286.32 605.92 1284.96 606.852 1283.31 607.523C1281.66 608.182 1279.75 608.511 1277.6 608.511ZM1301.61 573.091V608H1294.35V573.091H1301.61ZM1319.26 608.511C1316.61 608.511 1314.32 607.949 1312.39 606.824C1310.47 605.687 1308.99 604.108 1307.94 602.085C1306.89 600.051 1306.37 597.693 1306.37 595.011C1306.37 592.307 1306.89 589.943 1307.94 587.92C1308.99 585.886 1310.47 584.307 1312.39 583.182C1314.32 582.045 1316.61 581.477 1319.26 581.477C1321.91 581.477 1324.19 582.045 1326.11 583.182C1328.04 584.307 1329.53 585.886 1330.58 587.92C1331.62 589.943 1332.14 592.307 1332.14 595.011C1332.14 597.693 1331.62 600.051 1330.58 602.085C1329.53 604.108 1328.04 605.687 1326.11 606.824C1324.19 607.949 1321.91 608.511 1319.26 608.511ZM1319.29 602.886C1320.5 602.886 1321.5 602.545 1322.31 601.864C1323.12 601.17 1323.72 600.227 1324.13 599.034C1324.55 597.841 1324.76 596.483 1324.76 594.96C1324.76 593.438 1324.55 592.08 1324.13 590.886C1323.72 589.693 1323.12 588.75 1322.31 588.057C1321.5 587.364 1320.5 587.017 1319.29 587.017C1318.08 587.017 1317.05 587.364 1316.22 588.057C1315.41 588.75 1314.79 589.693 1314.37 590.886C1313.96 592.08 1313.75 593.438 1313.75 594.96C1313.75 596.483 1313.96 597.841 1314.37 599.034C1314.79 600.227 1315.41 601.17 1316.22 601.864C1317.05 602.545 1318.08 602.886 1319.29 602.886ZM1341.38 608L1334.25 581.818H1341.6L1345.65 599.409H1345.89L1350.12 581.818H1357.33L1361.62 599.307H1361.85L1365.84 581.818H1373.16L1366.06 608H1358.37L1353.87 591.534H1353.55L1349.05 608H1341.38Z" fill="#3A3A3A"/>
<defs>
<clipPath id="clip0_256_123">
<rect width="139.437" height="139.437" fill="white" transform="translate(920.282 705.549)"/>
</clipPath>
</defs>
</svg>
